SplineFontDB: 3.2
FontName: AlfabetoSER-LIBRAS
FullName: Alfabeto SER-LIBRAS
FamilyName: SER-LIBRAS
Weight: Regular
Copyright: Copyright (c) 2023
UComments: "2023-11-21: Created with FontForge (http://fontforge.org)"
Version: 001.000
ItalicAngle: 0
UnderlinePosition: -100
UnderlineWidth: 50
Ascent: 800
Descent: 200
InvalidEm: 0
LayerCount: 2
Layer: 0 0 "Back" 1
Layer: 1 0 "Fore" 0
XUID: [1021 717 -767625607 23898]
StyleMap: 0x0000
FSType: 0
OS2Version: 0
OS2_WeightWidthSlopeOnly: 0
OS2_UseTypoMetrics: 1
CreationTime: 1700600676
ModificationTime: 1700770251
OS2TypoAscent: 0
OS2TypoAOffset: 1
OS2TypoDescent: 0
OS2TypoDOffset: 1
OS2TypoLinegap: 90
OS2WinAscent: 0
OS2WinAOffset: 1
OS2WinDescent: 0
OS2WinDOffset: 1
HheadAscent: 0
HheadAOffset: 1
HheadDescent: 0
HheadDOffset: 1
MarkAttachClasses: 1
DEI: 91125
Encoding: UnicodeFull
UnicodeInterp: none
NameList: AGL For New Fonts
DisplaySize: -48
AntiAlias: 1
FitToEm: 0
WinInfo: 38 38 14
BeginPrivate: 0
EndPrivate
BeginChars: 1114112 52

StartChar: A
Encoding: 65 65 0
Width: 825
Flags: W
HStem: 100 15.4219<467.22 582.307> 575.624 10.606<75.8887 156.742> 585.057 15.4219<465.859 582.307>
VStem: 274.76 15.4219<292.64 446.917> 759.346 15.4199<292.64 407.84>
LayerCount: 2
Fore
SplineSet
524.763671875 600.478515625 m 0xb8
 662.749023438 600.478515625 774.765625 488.348632812 774.765625 350.240234375 c 0
 774.765625 212.131835938 662.749023438 100 524.763671875 100 c 0
 386.778320312 100 274.759765625 212.131835938 274.759765625 350.240234375 c 0
 274.759765625 366.104492188 276.256835938 381.620117188 279.08203125 396.66796875 c 0
 279.59123987 401.927216175 279.842038552 407.173786323 279.842038552 412.391920174 c 0
 279.842038552 471.160844472 248.03008762 526.322835512 195.279296875 555.365234375 c 0
 170.569666867 568.969279332 143.475288435 575.623925667 116.548278714 575.623925667 c 0
 77.010880457 575.623925667 37.8343218011 561.276800078 7.09765625 533.515625 c 1
 0 541.400390625 l 1
 32.7217147623 570.954044761 74.4606639834 586.229921356 116.577142684 586.229921356 c 0xd8
 145.254282353 586.229921356 174.106454413 579.147631489 200.40625 564.66796875 c 0
 250.075195312 537.322265625 282.322265625 488.176757812 289.111328125 433.88671875 c 1
 323.530273438 530.911132812 416.083984375 600.478515625 524.763671875 600.478515625 c 0xb8
524.763671875 585.056640625 m 0xb8
 395.120117188 585.056640625 290.181640625 480.022460938 290.181640625 350.240234375 c 0
 290.181640625 220.458007812 395.120117188 115.421875 524.763671875 115.421875 c 0
 654.407226562 115.421875 759.345703125 220.458007812 759.345703125 350.240234375 c 0
 759.345703125 480.022460938 654.407226562 585.056640625 524.763671875 585.056640625 c 0xb8
EndSplineSet
Validated: 1
EndChar

StartChar: B
Encoding: 66 66 1
Width: 600
Flags: W
HStem: 58.2949 15.4326<243.526 356.233> 542.863 15.4316<265.213 336.968>
VStem: 50 15.454<252.669 305.022 316.402 365.243> 143.164 15.4297<514.308 743.732> 249.467 15.4297<555.836 797.975> 338.969 15.4297<555.279 799.998> 437.45 15.4297<517.178 752.457> 534.567 15.4326<250.734 366.848>
LayerCount: 2
Fore
SplineSet
300 58.294921875 m 0
 161.8828125 58.294921875 50 170.94921875 50 308.294921875 c 0
 50 386.57030534 86.3393749425 456.825321558 143.1640625 502.778030732 c 1
 143.1640625 743.732421875 l 1
 158.59375 743.732421875 l 1
 158.59375 514.30826565 l 1
 185.542834071 532.882277673 216.305598083 546.316675834 249.466796875 553.158019615 c 1
 249.466796875 797.974609375 l 1
 264.896484375 797.974609375 l 1
 264.896484375 555.836388302 l 1
 276.365772246 557.45658837 288.085271799 558.294921875 300 558.294921875 c 0
 313.256502185 558.294921875 326.27132857 557.264246197 338.96875 555.278621406 c 1
 338.96875 799.998046875 l 1
 354.3984375 799.998046875 l 1
 354.3984375 552.36500956 l 1
 384.483416513 545.694608082 412.525694432 533.607133164 437.450195312 517.177623977 c 1
 437.450195312 752.45703125 l 1
 452.879882812 752.45703125 l 1
 452.879882812 506.146813726 l 1
 511.968574267 460.430206976 550 388.821716561 550 308.294921875 c 0
 550 170.177734375 437.345703125 58.294921875 300 58.294921875 c 0
65.4539702536 305.021524953 m 1
 67.2028716921 176.903998913 171.463028805 73.7275390625 300 73.7275390625 c 0
 429.629882812 73.7275390625 534.567382812 178.666015625 534.567382812 308.294921875 c 0
 534.567382812 437.924804688 428.857421875 542.86328125 300 542.86328125 c 0
 173.083655909 542.86328125 69.8358085413 442.272170174 65.5688533098 316.402343432 c 1
 235.426757812 305.41796875 l 1
 234.693359375 294.077148438 l 1
 65.4539702536 305.021524953 l 1
EndSplineSet
Validated: 1
EndChar

StartChar: C
Encoding: 67 67 2
Width: 548
Flags: W
HStem: 100 16.0224<188.542 308.188> 583.964 16.037<189.285 307.989>
VStem: 482.072 16.0297<292.291 406.64>
LayerCount: 2
Fore
SplineSet
244.708984375 599.9765625 m 0
 245.860951461 599.992570162 247.0135935 600.000586052 248.166829078 600.000586052 c 0
 272.059697462 600.000586052 296.207337212 596.559842743 319.885742188 589.463867188 c 0
 419.171875 559.709960938 489.822265625 471.6953125 497.424804688 368.317382812 c 0
 497.877936411 362.155722667 498.101565451 356.015360054 498.101565451 349.906337196 c 0
 498.101565451 253.519590006 442.431805614 164.934497692 354.162109375 123.59375 c 0
 320.274471296 107.722967224 284.107769496 100.000044092 248.217321348 100.000044092 c 0
 184.695993727 100.000044092 122.040011325 124.191559963 74.416015625 170.21875 c 1
 85.5830078125 181.7578125 l 1
 130.169362389 138.666383905 188.759849786 116.02248009 248.18078007 116.02248009 c 0
 281.764917638 116.02248009 315.61433201 123.255852218 347.350585938 138.119140625 c 0
 429.994203164 176.825621647 482.071818648 259.65190737 482.071818648 349.881606482 c 0
 482.071818648 355.605986522 481.862210099 361.360164754 481.4375 367.134765625 c 0
 474.319335938 463.931640625 408.245117188 546.239257812 315.282226562 574.098632812 c 0
 293.098907249 580.746357984 270.490468113 583.963541354 248.118985092 583.963541354 c 0
 176.739046164 583.963541354 107.771403895 551.211482198 62.7216796875 492.637695312 c 1
 50 502.404296875 l 1
 97.39453125 564.02734375 169.650390625 598.931640625 244.708984375 599.9765625 c 0
EndSplineSet
Validated: 1
EndChar

StartChar: D
Encoding: 68 68 3
Width: 600
Flags: W
HStem: 41 15.4619<242.459 357.534> 525.536 15.4619<242.459 358.592>
VStem: 50 15.4639<233.464 348.54> 534.53 15.4697<234.571 854.831>
LayerCount: 2
Fore
SplineSet
299.99609375 525.536132812 m 0
 170.374023438 525.536132812 65.4638671875 420.624023438 65.4638671875 291.001953125 c 0
 65.4638671875 161.379882812 170.374023438 56.4619140625 299.99609375 56.4619140625 c 0
 429.618164062 56.4619140625 534.530273438 161.379882812 534.530273438 291.001953125 c 0
 534.530273438 420.624023438 429.618164062 525.536132812 299.99609375 525.536132812 c 0
534.530273438 377.656731893 m 1
 534.530273438 854.831054688 l 1
 541.221679688 854.831054688 l 1
 550 854.831054688 l 1
 550 297.247070312 l 1
 550 291.001953125 l 2
 550 153.022460938 437.975585938 41 299.99609375 41 c 0
 162.016601562 41 50 153.022460938 50 291.001953125 c 0
 50 428.981445312 162.016601562 540.998046875 299.99609375 540.998046875 c 0
 407.51469635 540.998046875 499.258243417 472.97540189 534.530273438 377.656731893 c 1
EndSplineSet
Validated: 1
EndChar

StartChar: E
Encoding: 69 69 4
Width: 600
Flags: W
HStem: 100.006 14.9277<64.9316 535.062> 353.724 14.9297<64.9316 257.781> 585.062 14.9336<64.9316 535.062>
VStem: 50.0059 14.9258<114.934 353.724 368.653 585.062> 535.062 14.9336<114.934 585.062>
LayerCount: 2
Fore
SplineSet
64.931640625 353.723632812 m 5
 64.931640625 114.93359375 l 5
 535.0625 114.93359375 l 5
 535.0625 585.0625 l 5
 64.931640625 585.0625 l 5
 64.931640625 368.653320312 l 5
 257.78125 368.653320312 l 5
 257.78125 362.94921875 l 5
 257.78125 359.427734375 l 5
 257.78125 353.723632812 l 5
 64.931640625 353.723632812 l 5
50.005859375 599.99609375 m 5
 549.99609375 599.99609375 l 5
 549.99609375 100.005859375 l 5
 50.005859375 100.005859375 l 5
 50.005859375 353.723632812 l 5
 50 362.94921875 l 5
 50 368.653320312 l 6
 50 443.278320312 50.005859375 517.90234375 50.005859375 592.52734375 c 6
 50.005859375 599.99609375 l 5
EndSplineSet
Validated: 1
EndChar

StartChar: M
Encoding: 77 77 5
Width: 600
Flags: W
HStem: 100 15.4316<241.354 301.32 316.75 358.527> 584.567 15.4316<242.438 357.433>
VStem: 50 15.4316<292.166 407.441> 168.999 15.4297<-96.5684 128.387> 301.32 15.4297<-136.74 100> 411.566 15.4297<-103.578 126.365> 534.567 15.4326<291.576 407.561>
LayerCount: 2
Fore
SplineSet
300 584.567382812 m 0
 170.370117188 584.567382812 65.431640625 479.62890625 65.431640625 350 c 0
 65.431640625 220.370117188 170.370117188 115.431640625 300 115.431640625 c 0
 429.629882812 115.431640625 534.567382812 220.370117188 534.567382812 350 c 0
 534.567382812 479.62890625 428.858398438 584.567382812 300 584.567382812 c 0
301.3203125 100.003447567 m 1
 300.880464088 100.003447567 300.440358955 100 300 100 c 0
 258.298976852 100 218.989444375 110.269415607 184.428710938 128.387237587 c 1
 184.428710938 -96.568359375 l 1
 168.999023438 -96.568359375 l 1
 168.999023438 137.189040298 l 1
 97.5851604751 181.358848132 50 260.428642009 50 350 c 0
 50 487.344726562 161.8828125 599.999023438 300 599.999023438 c 0
 438.1171875 599.999023438 550 488.1171875 550 350 c 0
 550 258.394503094 500.444098772 178.329339156 426.99609375 134.793047501 c 1
 426.99609375 -103.578125 l 1
 411.56640625 -103.578125 l 1
 411.56640625 126.364543282 l 1
 382.654007499 111.866550977 350.588572765 102.816325684 316.75 100.557457895 c 1
 316.75 -136.740234375 l 1
 301.3203125 -136.740234375 l 1
 301.3203125 100.003447567 l 1
EndSplineSet
Validated: 1
EndChar

StartChar: F
Encoding: 70 70 6
Width: 894
Flags: W
HStem: 78.7344 15.4326<536.918 652.103> 563.303 15.4316<535.406 641.759> 703.354 20G<853.194 874.853>
VStem: 344.662 15.4326<269.686 383.611> 829.23 15.4316<271.174 387.522>
LayerCount: 2
Fore
SplineSet
594.662109375 563.302734375 m 0
 465.032226562 563.302734375 360.094726562 458.364257812 360.094726562 328.735351562 c 0
 360.094726562 199.10546875 465.032226562 94.1669921875 594.662109375 94.1669921875 c 0
 724.291992188 94.1669921875 829.23046875 199.10546875 829.23046875 328.735351562 c 0
 829.23046875 458.364257812 723.520507812 563.302734375 594.662109375 563.302734375 c 0
363.546527182 233.534035475 m 1
 174.589410728 357.372729761 l 1
 2.3330078125 329.133789062 l 1
 -0.0595703125 343.727539062 l 1
 156.298556488 369.36018781 l 1
 63.9228515625 429.901367188 l 1
 71.3857421875 441.288085938 l 1
 176.166466409 372.617243691 l 1
 355.537109375 402.022460938 l 1
 355.57790611 401.773617504 l 1
 376.375137515 469.563257889 425.325271966 525.35395573 488.83916597 555.18919707 c 1
 523.681640625 800 l 1
 538.9453125 797.827148438 l 1
 505.418689024 562.255280264 l 1
 533.132952782 572.895346434 563.217649044 578.734375 594.662109375 578.734375 c 0
 611.026180143 578.734375 627.021988012 577.163842854 642.507086963 574.165221332 c 1
 700.32421875 800 l 1
 714.649414062 796.33203125 l 1
 656.941886103 570.921670679 l 1
 702.16638566 559.33478051 742.441503799 535.421363254 773.978347265 502.970225766 c 1
 861.100585938 723.353515625 l 1
 874.852539062 717.91796875 l 1
 785.075195312 490.817382812 l 1
 785.021785926 490.838497005 l 1
 822.216657238 447.197911045 844.662109375 390.59824341 844.662109375 328.735351562 c 0
 844.662109375 190.6171875 732.0078125 78.734375 594.662109375 78.734375 c 0
 490.380553293 78.734375 401.054130082 142.95449013 363.546527182 233.534035475 c 1
355.833861414 254.867424428 m 1
 348.572577124 278.243908709 344.662109375 303.058146842 344.662109375 328.735351562 c 0
 344.662109375 348.543812505 346.989347719 367.838695772 351.386882067 386.356112813 c 1
 194.457392518 360.629797424 l 1
 355.833861414 254.867424428 l 1
EndSplineSet
Validated: 8912897
EndChar

StartChar: G
Encoding: 71 71 7
Width: 644
Flags: W
HStem: 25.5059 15.4316<286.683 401.685> 510.074 15.4316<286.658 401.677>
VStem: 94.2441 15.4316<219.273 304.408> 578.812 15.4326<217.944 333.067>
LayerCount: 2
Fore
SplineSet
111.447265625 304.374023438 m 1
 110.272186327 294.910651973 109.67578125 285.278420977 109.67578125 275.505859375 c 0
 109.67578125 145.875976562 214.614257812 40.9375 344.244140625 40.9375 c 0
 473.873046875 40.9375 578.811523438 145.875976562 578.811523438 275.505859375 c 0
 578.811523438 405.135742188 473.1015625 510.07421875 344.244140625 510.07421875 c 0
 236.914167044 510.07421875 146.511100657 438.134863174 118.583733945 339.804944502 c 0
 118.583733945 339.776864043 118.577148438 339.748783584 118.577148438 339.720703125 c 0
 115.316043446 328.283513125 112.917237046 316.488157622 111.435450653 304.407630201 c 1
 111.447265625 304.374023438 l 1
344.244140625 25.505859375 m 0
 206.126953125 25.505859375 94.244140625 138.16015625 94.244140625 275.505859375 c 0
 94.244140625 284.660616042 94.7412212453 293.705672039 95.7100186677 302.614978148 c 2
 17.8759765625 524.0078125 l 1
 32.4326171875 529.125 l 1
 101.118518948 333.753334088 l 1
 101.794676678 336.567981869 102.518689835 339.364563817 103.289653528 342.142150588 c 2
 139.109375 800.346679688 l 1
 154.4921875 799.143554688 l 1
 122.579554747 390.919225188 l 1
 164.323558188 470.692089349 247.901469693 525.505859375 344.244140625 525.505859375 c 0
 482.361328125 525.505859375 594.244140625 413.623046875 594.244140625 275.505859375 c 0
 594.244140625 137.388671875 481.588867188 25.505859375 344.244140625 25.505859375 c 0
EndSplineSet
Validated: 1
EndChar

StartChar: H
Encoding: 72 72 8
Width: 625
Flags: W
HStem: -98.4199 10.8711<312.904 387.566> -10.9941 10.7822<215.623 247.495 452.975 484.973> 32.6876 13.6966<298.062 401.424> 469.002 13.7003<298.838 401.694> 559.905 57.2822G<0 35.7969 127.127 129.429 129.429 136.064>
VStem: 125.105 13.6908<206.411 309.619> 182.71 10.7783<-47.5114 -15.8336> 506.974 10.7842<-43.2168 -15.8354> 561.303 14.0638<204.477 310.297>
LayerCount: 2
Fore
SplineSet
507.940429688 9.4990234375 m 1
 517.66015625 -41.169921875 l 2
 517.723632812 -41.5029296875 517.7578125 -41.8466796875 517.7578125 -42.1982421875 c 0
 517.7578125 -44.8486328125 515.852539062 -47.0546875 513.340820312 -47.53515625 c 0
 513.0078125 -47.599609375 512.6640625 -47.6328125 512.3125 -47.6328125 c 0
 509.661132812 -47.6328125 507.455078125 -45.728515625 506.973632812 -43.216796875 c 1
 506.973632812 -43.2203472703 502.919539126 -22.0793166447 500.708746307 -10.5411636945 c 1
 459.793386372 -66.6544474959 406.255686457 -98.4199218748 350.235351562 -98.419921875 c 0
 294.216045582 -98.419921875 240.673873686 -66.6566703123 199.757635551 -10.5470535709 c 1
 193.48828125 -43.216796875 l 2
 193.0078125 -45.728515625 190.796875 -47.6279296875 188.145507812 -47.6279296875 c 0
 187.793945312 -47.6279296875 187.455078125 -47.599609375 187.122070312 -47.53515625 c 0
 184.610351562 -47.0546875 182.709960938 -44.84375 182.709960938 -42.193359375 c 0
 182.709960938 -41.841796875 182.73828125 -41.5029296875 182.802734375 -41.169921875 c 0
 182.806640625 -41.1650390625 192.522460938 9.4990234375 192.522460938 9.4990234375 c 1
 243.19921875 -0.2119140625 l 2
 245.7109375 -0.693359375 247.611328125 -2.9033203125 247.611328125 -5.5537109375 c 0
 247.611328125 -5.9052734375 247.58203125 -6.2451171875 247.518554688 -6.578125 c 0
 247.037109375 -9.08984375 244.826171875 -10.9892578125 242.17578125 -10.9892578125 c 0
 241.82421875 -10.9892578125 241.484375 -10.9609375 241.151367188 -10.896484375 c 0
 241.147868982 -10.896484375 220.623375415 -6.96162289254 208.983497469 -4.73183731541 c 1
 248.285388338 -58.3727067436 298.516953494 -87.5488281222 350.235351562 -87.548828125 c 0
 401.952143764 -87.548828125 452.176854099 -58.3734718713 491.477896848 -4.73394736518 c 1
 459.318359375 -10.896484375 l 2
 458.985351562 -10.9609375 458.641601562 -10.994140625 458.290039062 -10.994140625 c 0
 455.638671875 -10.994140625 453.432617188 -9.08984375 452.951171875 -6.578125 c 0
 452.887695312 -6.2451171875 452.853515625 -5.900390625 452.853515625 -5.5478515625 c 0
 452.853515625 -2.900390625 454.754882812 -0.6962890625 457.263671875 -0.2119140625 c 1
 457.258789062 -0.2080078125 507.940429688 9.4990234375 507.940429688 9.4990234375 c 1
348.938476562 468.998046875 m 0
 291.483398438 468.658203125 234.37890625 445.004882812 192.928710938 398.857421875 c 0
 156.656557512 358.475329341 138.79578712 308.020656748 138.79578712 257.748024898 c 0
 138.79578712 199.880050993 162.461167955 142.253279648 208.952148438 100.5078125 c 0
 249.340803913 64.2417825557 299.803393655 46.3841669674 350.0839151 46.3841669674 c 0
 407.961631642 46.3841669674 465.598103607 70.0459082207 507.350585938 116.529296875 c 0
 543.553355384 156.834143643 561.303262111 207.27314813 561.303262111 257.511120842 c 0
 561.303262111 315.546311883 537.616009006 373.313225991 491.325195312 414.87890625 c 0
 450.936865329 451.144337554 400.474797164 469.001760445 350.194360603 469.001760445 c 0
 349.775718025 469.001760445 349.357088038 469.000522482 348.938476562 468.998046875 c 0
148.037000496 462.263621261 m 1
 156.034373489 371.855392672 l 1
 163.516302967 384.589239536 172.356977542 396.757599644 182.584960938 408.14453125 c 0
 187.955856557 414.124466728 193.586303034 419.740460564 199.437498146 425.005592159 c 1
 199.461386477 425.260679347 l 1
 148.037000496 462.263621261 l 1
133.472814437 472.743430023 m 1
 -0 568.78515625 l 1
 8.001953125 579.905273438 l 1
 131.878263805 490.769411577 l 1
 120.763671875 616.416992188 l 1
 127.127273321 616.980053343 l 1
 129.428710938 617.1875 l 1
 129.429045523 617.183717656 l 1
 134.294921875 617.614257812 l 1
 146.442443176 480.289678418 l 1
 200.942271057 441.074035792 l 1
 234.102539062 795.169921875 l 1
 247.7421875 793.892578125 l 1
 214.351000042 437.330860694 l 1
 254.159871121 467.398720295 302.162800165 482.702102723 350.336481263 482.702102723 c 0
 403.892850914 482.702102723 457.660262389 463.787813508 500.614257812 425.21875 c 0
 550.15066594 380.738933127 575.367081209 319.310292749 575.367081209 257.626937798 c 0
 575.367081209 204.043013906 556.338062164 150.266875204 517.692382812 107.2421875 c 0
 473.251848856 57.7660202554 411.747281794 32.6875747631 350.060272334 32.6875747631 c 0
 296.352300354 32.6875747631 242.506030392 51.6979499121 199.663085938 90.16796875 c 0
 150.182260832 134.597836566 125.10496574 196.08429853 125.10496574 257.755068011 c 0
 125.10496574 288.917325281 131.50791077 320.12664149 144.400728316 349.206196386 c 1
 133.472814437 472.743430023 l 1
EndSplineSet
Validated: 524321
EndChar

StartChar: I
Encoding: 73 73 9
Width: 600
Flags: W
HStem: 100 15.4355<242.438 357.441> 584.68 15.4355<242.438 356.908> 678.785 20G<524.857 540.839>
VStem: 50 15.4316<292.604 407.513> 524.857 15.4238<447.921 698.355> 534.562 15.4277<293.572 407.788 443.467 604.919>
LayerCount: 2
Fore
SplineSet
300 584.6796875 m 0xf4
 170.370117188 584.6796875 65.431640625 479.717773438 65.431640625 350.05859375 c 0
 65.431640625 220.399414062 170.370117188 115.435546875 300 115.435546875 c 0
 429.629882812 115.435546875 534.568359375 220.399414062 534.568359375 350.05859375 c 0
 534.568359375 350.233398438 534.5625 350.40625 534.5625 350.580078125 c 2
 534.22265625 362.716796875 l 2
 527.609375 486.48046875 424.63671875 584.6796875 300 584.6796875 c 0xf4
540.28125 698.78515625 m 1xf8
 549.634765625 363.576171875 l 2
 549.859375 359.360351562 549.9765625 355.1171875 549.990234375 350.84765625 c 2xf4
 550 350.48828125 l 2
 549.994140625 350.344726562 550 350.202148438 550 350.05859375 c 0
 550 211.909179688 437.345703125 100 300 100 c 0
 161.8828125 100 50 212.681640625 50 350.05859375 c 0
 50 487.435546875 161.8828125 600.115234375 300 600.115234375 c 0
 405.095703125 600.115234375 494.986328125 535.313476562 531.96875 443.466796875 c 1
 524.857421875 698.35546875 l 1
 540.28125 698.78515625 l 1xf8
EndSplineSet
Validated: 1
EndChar

StartChar: J
Encoding: 74 74 10
Width: 723
Flags: W
HStem: 28.835 17.1592<613.742 647.397> 99.1436 15.4355<242.452 357.454> 194.832 14.2314<554.41 586.157> 583.823 15.4355<242.452 356.92> 677.929 20G<524.87 540.852>
VStem: 50.0127 15.4326<291.748 406.657> 524.87 15.4238<447.012 697.499> 534.582 15.4307<292.716 406.932 442.61 604.156> 578.133 18.3824<57.1754 155.817> 631.998 14.5527<150.51 183.564>
LayerCount: 2
Fore
SplineSet
300.012695312 583.823242188 m 0xfdc0
 170.384765625 583.823242188 65.4453125 478.862304688 65.4453125 349.202148438 c 0
 65.4453125 219.54296875 170.384765625 114.579101562 300.013671875 114.579101562 c 0
 429.643554688 114.579101562 534.58203125 219.54296875 534.58203125 349.202148438 c 0
 534.58203125 349.376953125 534.575195312 349.549804688 534.575195312 349.723632812 c 2
 534.235351562 361.860351562 l 2
 527.62109375 485.624023438 424.6484375 583.823242188 300.012695312 583.823242188 c 0xfdc0
540.293945312 697.928710938 m 1xfec0
 549.645507812 362.719726562 l 2
 549.870117188 358.50390625 549.989257812 354.260742188 550.000976562 349.991210938 c 2
 550.012695312 349.631835938 l 2
 550.008789062 349.48828125 550.012695312 349.345703125 550.012695312 349.202148438 c 0xfdc0
 550.012695312 211.053710938 437.357421875 99.1435546875 300.012695312 99.1435546875 c 0
 161.895507812 99.1435546875 50.0126953125 211.825195312 50.0126953125 349.202148438 c 0
 50.0126953125 486.580078125 161.895507812 599.258789062 300.012695312 599.258789062 c 0
 405.108398438 599.258789062 494.999023438 534.45703125 531.981445312 442.610351562 c 1
 524.870117188 697.499023438 l 1
 540.293945312 697.928710938 l 1xfec0
629.716796875 227.598632812 m 1
 646.77734375 159.484375 l 2
 647.112304688 158.131835938 647.069335938 156.654296875 646.55078125 155.225585938 c 0
 645.655273438 152.762695312 643.588867188 151.0078125 641.194335938 150.372070312 c 0
 639.791992188 149.998046875 638.26953125 149.99609375 636.810546875 150.470703125 c 0
 634.3203125 151.28125 632.584960938 153.255859375 631.998046875 155.58203125 c 2
 621.741579093 196.581819667 l 1
 605.344373151 164.301390295 596.515385495 127.211210433 596.515385495 97.8978408981 c 0
 596.515385495 84.8728076797 598.258544898 73.3831962533 601.85546875 64.533203125 c 0
 605.0859375 56.5859375 609.21484375 51.6318359375 613.5390625 48.8466796875 c 0
 617.862304688 46.0615234375 622.513671875 45.12109375 628.356445312 45.994140625 c 0
 640.04296875 47.740234375 656.483398438 58.3056640625 672.560546875 79.111328125 c 0
 674.848632812 82.0712890625 678.866210938 83.4423828125 682.577148438 82.234375 c 0
 683.469726562 81.9443359375 684.278320312 81.525390625 684.9921875 81.0068359375 c 0
 687.955078125 78.84375 689.249023438 74.943359375 687.916992188 71.275390625 c 0
 687.596679688 70.3935546875 687.147460938 69.58984375 686.59765625 68.876953125 c 0
 668.788085938 45.828125 649.678710938 31.69140625 630.565429688 28.8349609375 c 0
 621.008789062 27.40625 611.427734375 29.1611328125 603.532226562 34.2470703125 c 0
 595.637695312 39.3330078125 589.544921875 47.4111328125 585.342773438 57.7470703125 c 0
 580.437459299 69.815659614 578.132940691 84.1205037112 578.132940691 99.6429715506 c 0
 578.132940691 132.931010846 588.731213946 171.818791926 607.005760764 206.260174193 c 1
 563.298828125 194.72265625 l 2
 561.908203125 194.359375 560.400390625 194.361328125 558.954101562 194.83203125 c 0
 556.461914062 195.643554688 554.724609375 197.62109375 554.139648438 199.952148438 c 0
 553.8046875 201.3046875 553.84765625 202.78125 554.3671875 204.2109375 c 0
 555.26171875 206.673828125 557.328125 208.428710938 559.723632812 209.063476562 c 2
 629.716796875 227.598632812 l 1
EndSplineSet
Validated: 1
EndChar

StartChar: K
Encoding: 75 75 11
Width: 660
Flags: W
HStem: 32.8567 13.6913<348.178 451.477> 468.979 13.6972<349.055 452.266> 559.905 20G<50 85.7969 170.764 186.064> 579.905 21G<572.714 602.783>
VStem: 175.316 13.6913<206.51 309.561> 571.92 31.6572<622.02 746.624> 611.26 14.0558<204.572 310.345>
LayerCount: 2
Fore
SplineSet
587.745117188 783.43359375 m 1xde
 601.581054688 765.028320312 l 1
 615.41796875 746.624023438 l 1
 603.577148438 746.624023438 l 1
 603.577148438 622.01953125 l 1
 619.40234375 622.01953125 l 1
 603.577148438 600.961914062 l 1
 587.745117188 579.905273438 l 1
 571.919921875 600.961914062 l 1
 556.087890625 622.01953125 l 1
 571.919921875 622.01953125 l 1
 571.919921875 746.624023438 l 1
 560.072265625 746.624023438 l 1
 573.909179688 765.028320312 l 1
 587.745117188 783.43359375 l 1xde
541.325195312 414.87890625 m 0
 500.961107004 451.129000022 450.529230774 468.978746701 400.279250389 468.978746701 c 0
 342.436550159 468.978746701 284.834867166 445.327317941 243.107421875 398.864257812 c 0
 206.857098748 358.499914119 189.007144504 308.067866155 189.007144504 257.817796013 c 0
 189.007144504 199.975676365 212.658289006 142.374676873 259.12109375 100.647460938 c 0
 299.485744442 64.3977237993 349.918026082 46.5480104873 400.168270437 46.5480104873 c 0
 458.010984237 46.5480104873 515.61249581 70.1991576449 557.33984375 116.662109375 c 0
 593.520786695 156.949703531 611.260256977 207.366830496 611.260256977 257.582856042 c 0
 611.260256977 315.591568046 587.587849951 373.33192059 541.325195312 414.87890625 c 0
249.838867188 90.3115234375 m 0
 200.383744976 134.725233309 175.315814593 196.192898111 175.315814593 257.842853616 c 0
 175.315814593 288.853676332 181.658592741 319.910622899 194.430789731 348.866359885 c 1
 183.472814437 472.743430023 l 1
 50 568.78515625 l 1
 58.001953125 579.905273438 l 1xee
 181.878263805 490.769411577 l 1
 170.763671875 616.416992188 l 1
 184.294921875 617.614257812 l 1
 196.442443176 480.289678418 l 1
 250.942271057 441.074035792 l 1
 284.102539062 795.169921875 l 1
 297.7421875 793.892578125 l 1
 264.338099723 437.193106982 l 1
 304.156626926 467.334898259 352.200348044 482.675914619 400.4154221 482.675914619 c 0
 453.941672712 482.675914619 507.679106601 463.768937308 550.608398438 425.215820312 c 0
 600.11491587 380.755431815 625.316083688 319.353841017 625.316083688 257.69771969 c 0
 625.316083688 204.137213746 606.298400565 150.384630158 567.67578125 107.37890625 c 0
 523.261649511 57.9244176349 461.793918849 32.8567317606 400.143990137 32.8567317606 c 0
 346.468879087 32.8567317606 292.655658244 51.8585425665 249.838867188 90.3115234375 c 0
206.056810408 371.601749129 m 1
 213.572536426 384.429556687 222.474227291 396.682714076 232.770507812 408.147460938 c 0
 238.082702465 414.06250636 243.643305652 419.630944986 249.423003195 424.850810457 c 1
 249.461386477 425.260679347 l 1
 198.037000496 462.263621261 l 1
 206.056810408 371.601749129 l 1
EndSplineSet
Validated: 524289
EndChar

StartChar: O
Encoding: 79 79 12
Width: 600
Flags: W
HStem: 100 15.4316<242.438 357.441> 222.465 7.7793<272.484 330.461> 466.751 7.78027<272.484 330.456> 584.567 15.4326<242.438 357.433>
VStem: 50 15.4316<292.559 407.441> 175.47 7.7793<319.54 377.456> 419.756 7.7793<319.479 377.516> 534.567 15.4326<292.438 407.561>
LayerCount: 2
Fore
SplineSet
300 100 m 0
 161.8828125 100 50 212.654296875 50 350 c 0
 50 487.345703125 161.8828125 600 300 600 c 0
 438.1171875 600 550 488.1171875 550 350 c 0
 550 211.8828125 437.345703125 100 300 100 c 0
300 584.567382812 m 0
 170.370117188 584.567382812 65.431640625 479.629882812 65.431640625 350 c 0
 65.431640625 220.370117188 170.370117188 115.431640625 300 115.431640625 c 0
 429.629882812 115.431640625 534.567382812 220.370117188 534.567382812 350 c 0
 534.567382812 479.629882812 428.858398438 584.567382812 300 584.567382812 c 0
301.502929688 222.46484375 m 0
 231.873046875 222.46484375 175.469726562 279.256835938 175.469726562 348.498046875 c 0
 175.469726562 417.73828125 231.873046875 474.53125 301.502929688 474.53125 c 0
 371.131835938 474.53125 427.53515625 418.126953125 427.53515625 348.498046875 c 0
 427.53515625 278.868164062 370.743164062 222.46484375 301.502929688 222.46484375 c 0
301.502929688 466.750976562 m 0
 236.15234375 466.750976562 183.249023438 413.84765625 183.249023438 348.498046875 c 0
 183.249023438 283.147460938 236.15234375 230.244140625 301.502929688 230.244140625 c 0
 366.852539062 230.244140625 419.755859375 283.147460938 419.755859375 348.498046875 c 0
 419.755859375 413.84765625 366.463867188 466.750976562 301.502929688 466.750976562 c 0
EndSplineSet
Validated: 1
EndChar

StartChar: L
Encoding: 76 76 13
Width: 865
Flags: W
HStem: 54.2451 15.4336<507.034 622.565> 174.655 15.666<50.001 342.704> 538.888 15.4336<506.014 622.557>
VStem: 305.448 15.248<441.517 799.761> 315.124 15.4316<245.626 662.74> 799.692 15.4316<246.714 361.854>
LayerCount: 2
Fore
SplineSet
320.696289062 799.999023438 m 1xf4
 328.786132812 385.704101562 l 1
 362.629882812 483.499023438 455.625976562 554.321289062 565.124023438 554.321289062 c 0
 703.241210938 554.321289062 815.124023438 442.422851562 815.124023438 304.284179688 c 0
 815.124023438 166.145507812 702.469726562 54.2451171875 565.124023438 54.2451171875 c 0
 474.609375 54.2451171875 395.365234375 102.637695312 351.491210938 174.655273438 c 1
 50.0009765625 174.655273438 l 1
 50.0009765625 190.321289062 l 1
 342.704101562 190.321289062 l 1
 325.078125 224.55859375 315.124023438 263.322265625 315.124023438 304.284179688 c 2xec
 305.448242188 799.760742188 l 1
 320.696289062 799.999023438 l 1xf4
565.124023438 538.887695312 m 0
 435.494140625 538.887695312 330.555664062 433.93359375 330.555664062 304.284179688 c 0
 330.555664062 174.634765625 435.494140625 69.6787109375 565.124023438 69.6787109375 c 0
 694.75390625 69.6787109375 799.692382812 174.634765625 799.692382812 304.284179688 c 0
 799.692382812 433.93359375 693.982421875 538.887695312 565.124023438 538.887695312 c 0
EndSplineSet
Validated: 8912897
EndChar

StartChar: N
Encoding: 78 78 14
Width: 600
Flags: W
HStem: 100 15.4316<241.354 301.32 316.75 358.252> 584.567 15.4316<242.438 357.433>
VStem: 50 15.4316<292.166 407.441> 168.999 15.4297<-96.5684 128.387> 301.32 15.4297<-136.74 100> 534.567 15.4326<293.556 407.561>
LayerCount: 2
Fore
SplineSet
300 584.567382812 m 0
 170.370117188 584.567382812 65.431640625 479.62890625 65.431640625 350 c 0
 65.431640625 220.370117188 170.370117188 115.431640625 300 115.431640625 c 0
 429.629882812 115.431640625 534.567382812 220.370117188 534.567382812 350 c 0
 534.567382812 479.62890625 428.858398438 584.567382812 300 584.567382812 c 0
301.3203125 100.003447567 m 1
 300.880464088 100.003447567 300.440358955 100 300 100 c 0
 258.298976852 100 218.989444375 110.269415607 184.428710938 128.387237587 c 1
 184.428710938 -96.568359375 l 1
 168.999023438 -96.568359375 l 1
 168.999023438 137.189040298 l 1
 97.5851604751 181.358848132 50 260.428642009 50 350 c 0
 50 487.344726562 161.8828125 599.999023438 300 599.999023438 c 0
 438.1171875 599.999023438 550 488.1171875 550 350 c 0
 550 217.541209861 446.387088646 109.211281618 316.75 100.557457895 c 1
 316.75 -136.740234375 l 1
 301.3203125 -136.740234375 l 1
 301.3203125 100.003447567 l 1
EndSplineSet
Validated: 1
EndChar

StartChar: P
Encoding: 80 80 15
Width: 815
Flags: W
HStem: 99.9996 15.4238<459.866 570.838> 585.017 15.4771<458.968 571.502>
VStem: 265.693 15.3144<357.005 405.229> 750.453 15.4175<295.209 405.371>
LayerCount: 2
Fore
SplineSet
476.508789062 581.704101562 m 0
 361.937742053 562.275254433 281.007769145 463.026083073 281.007769145 350.577629295 c 0
 281.007769145 347.782436453 281.057775589 344.979087805 281.158514806 342.168606612 c 2
 281.159179688 342.16796875 l 1
 281.158560795 342.167323678 l 1
 281.528180237 331.85703802 282.580561003 321.450764918 284.3515625 310.999023438 c 0
 303.773372842 196.384442003 402.983845061 115.423352063 515.389009535 115.423352063 c 0
 528.434032945 115.423352063 541.656768235 116.513771392 554.953125 118.768554688 c 0
 669.523674754 138.197317493 750.45344242 237.444927645 750.45344242 349.89331824 c 0
 750.45344242 362.943665979 749.363393539 376.171815982 747.109375 389.473632812 c 0
 727.679006403 504.138719364 627.779133224 585.017066412 515.734299609 585.017066412 c 0
 502.786172259 585.017066412 489.675854057 583.93697001 476.508789062 581.704101562 c 0
557.533203125 103.540039062 m 0
 543.457610058 101.153093555 529.457173081 99.9995835216 515.641279605 99.9995835216 c 0
 421.917589589 99.9995835216 336.686477938 153.083405293 294.096989181 234.299572643 c 1
 180.994783297 308.905087561 l 1
 4.19140625 258.474609375 l 1
 -0.0341796875 273.2890625 l 1
 164.040240083 320.088798937 l 1
 45.201171875 398.478515625 l 1
 53.68359375 411.337890625 l 1
 183.571758018 325.659867803 l 1
 251.93410897 345.159190191 l 1
 -37.7919921875 623.111328125 l 1
 -25.279296875 636.153320312 l 1
 265.69337673 357.005268461 l 1
 268.878609057 473.708385963 354.11096213 576.613037648 473.928710938 596.931640625 c 0
 488.088683777 599.332895293 502.171204244 600.494120807 516.065340042 600.494120807 c 0
 635.85272825 600.494120807 741.637645867 514.181225922 762.33203125 392.0546875 c 0
 764.717922517 377.973913525 765.870925476 363.968324056 765.870925476 350.147342273 c 0
 765.870925476 230.190937632 679.014987714 124.14106598 557.533203125 103.540039062 c 0
200.526301233 314.476156426 m 1
 282.201548879 260.600780088 l 1
 276.366621269 275.801741823 271.948288522 291.785456115 269.129882812 308.41796875 c 0
 267.829925263 316.089525864 266.896796036 323.742979047 266.317840841 331.359988086 c 1
 264.805538864 332.81083275 l 1
 200.526301233 314.476156426 l 1
EndSplineSet
Validated: 1
EndChar

StartChar: Q
Encoding: 81 81 16
Width: 674
Flags: W
HStem: 100 15.4316<317.128 433.579> 584.569 15.4326<317.997 433.571>
VStem: 124.589 15.5244<-123.205 312.974 348.551 406.234> 611.599 15.5098<292.439 407.563>
LayerCount: 2
Fore
SplineSet
124.588867188 348.551454385 m 1
 124.588867188 350.000976562 l 2
 124.588867188 487.346679688 237.03515625 600.001953125 375.848632812 600.001953125 c 0
 514.662109375 600.001953125 627.108398438 488.118164062 627.108398438 350.000976562 c 0
 627.108398438 211.8828125 513.885742188 100 375.848632812 100 c 0
 267.690117591 100 175.539045905 168.392098942 140.11328125 263.567809466 c 1
 140.11328125 -123.205078125 l 1
 124.588867188 -123.205078125 l 1
 124.588867188 312.97407751 l 1
 35.927734375 130.139648438 l 1
 21.958984375 136.9140625 l 1
 124.588867188 348.551454385 l 1
140.11328125 347.356066277 m 2
 141.536272257 218.946667743 246.453639049 115.431640625 375.848632812 115.431640625 c 0
 506.130859375 115.431640625 611.598632812 220.37109375 611.598632812 350.000976562 c 0
 611.598632812 479.630859375 505.35546875 584.569335938 375.848632812 584.569335938 c 0
 245.56640625 584.569335938 140.098632812 479.630859375 140.098632812 350.000976562 c 1
 140.11328125 350.000976562 l 1
 140.11328125 347.356066277 l 2
EndSplineSet
Validated: 1
EndChar

StartChar: R
Encoding: 82 82 17
Width: 600
Flags: W
HStem: 27.7656 15.4355<242.545 357.612> 512.432 15.4355<240.844 357.603>
VStem: 50 15.4414<220.364 336.982> 534.838 15.4414<220.243 335.389>
LayerCount: 2
Fore
SplineSet
216.001953125 801.109375 m 1
 231.14453125 798.091796875 l 1
 187.419921875 578.677734375 l 1
 224.37890625 516.134765625 l 1
 224.3203125 516.099609375 l 1
 248.234375 523.73046875 273.703125 527.8671875 300.138671875 527.8671875 c 0
 438.333007812 527.8671875 550.279296875 415.961914062 550.279296875 277.81640625 c 0
 550.279296875 139.670898438 437.560546875 27.765625 300.138671875 27.765625 c 0
 161.944335938 27.765625 50 140.443359375 50 277.81640625 c 0
 50 359.978515625 90.0537109375 433.294921875 151.80859375 478.96484375 c 1
 171.125 575.90625 l 1
 43.341796875 792.1484375 l 1
 56.634765625 800.001953125 l 1
 175.6484375 598.599609375 l 1
 216.001953125 801.109375 l 1
182.8984375 555.982421875 m 1
 169.99609375 491.236328125 l 1
 182.500976562 498.892578125 195.73046875 505.478515625 209.5546875 510.873046875 c 1
 182.8984375 555.982421875 l 1
300.138671875 512.431640625 m 0
 170.436523438 512.431640625 65.44140625 407.471679688 65.44140625 277.81640625 c 0
 65.44140625 148.161132812 170.436523438 43.201171875 300.138671875 43.201171875 c 0
 429.840820312 43.201171875 534.837890625 148.161132812 534.837890625 277.81640625 c 0
 534.837890625 407.471679688 429.068359375 512.431640625 300.138671875 512.431640625 c 0
EndSplineSet
Validated: 1
EndChar

StartChar: S
Encoding: 83 83 18
Width: 600
Flags: W
HStem: 100 15.4326<242.438 357.441> 328.581 13.3378<206.445 302.475> 584.568 15.4316<241.923 357.433>
VStem: 50 15.4316<292.559 390.298> 534.567 15.4326<292.439 407.562>
LayerCount: 2
Fore
SplineSet
300 100 m 0
 161.8828125 100 50 212.654296875 50 350 c 0
 50 487.345703125 161.8828125 600 300 600 c 0
 438.1171875 600 550 488.1171875 550 350 c 0
 550 211.8828125 437.345703125 100 300 100 c 0
72.3666397601 406.890628482 m 1
 127.505914975 377.994349436 182.211047322 349.95038546 229.280273438 343.495117188 c 0
 237.167839634 342.413245452 244.89952037 341.919245511 252.506689734 341.919245511 c 0
 291.249668555 341.919245511 326.763046365 354.732715183 363.19140625 367.958984375 c 1
 367.767578125 355.421875 l 1
 331.37881048 342.209980807 294.068197779 328.581418095 252.571575302 328.581418095 c 0
 244.369714138 328.581418095 236.004322172 329.113831994 227.450195312 330.287109375 c 0
 177.67939095 337.112696446 123.509221513 364.998690618 69.4225302094 393.350815091 c 1
 66.8018474529 379.3027656 65.431640625 364.812583603 65.431640625 350 c 0
 65.431640625 220.370117188 170.370117188 115.432617188 300 115.432617188 c 0
 429.629882812 115.432617188 534.567382812 220.370117188 534.567382812 350 c 0
 534.567382812 479.629882812 428.857421875 584.568359375 300 584.568359375 c 0
 189.992184842 584.568359375 97.76645325 508.994504223 72.3666397601 406.890628482 c 1
EndSplineSet
Validated: 1
EndChar

StartChar: T
Encoding: 84 84 19
Width: 894
Flags: W
HStem: 65.1885 15.459<536.256 651.488> 543.054 15.0371<609.498 643.576 656.897 675.515> 550.604 15.459<535.295 641.084>
VStem: 343.774 15.4463<256.29 370.562> 828.771 15.4453<257.964 374.775>
LayerCount: 2
Fore
SplineSet
593.99609375 550.604492188 m 0xb8
 464.251953125 550.604492188 359.220703125 445.482421875 359.220703125 315.625976562 c 0
 359.220703125 185.76953125 464.251953125 80.6474609375 593.99609375 80.6474609375 c 0
 723.740234375 80.6474609375 828.771484375 185.76953125 828.771484375 315.625976562 c 0
 828.771484375 424.972576128 753.75020888 516.780997263 653.046987813 543.054151593 c 1xd8
 653.046875 543.053710938 l 1
 650.906945635 543.601634431 l 2
 632.665274523 548.176125958 613.598279289 550.604492188 593.99609375 550.604492188 c 0xb8
195.553986401 347.875637395 m 1
 354.277675841 243.851552202 l 1
 347.445084393 266.616964256 343.774414062 290.716086533 343.774414062 315.625976562 c 0
 343.774414062 335.443126673 346.097601011 354.747137524 350.487814552 373.274702309 c 1
 195.553986401 347.875637395 l 1
172.993011565 344.177105762 m 1
 1.71484375 316.098632812 l 1
 -0.7861328125 331.354492188 l 1
 153.871730063 356.708741294 l 1
 62.7470703125 416.4296875 l 1
 71.2216796875 429.360351562 l 1
 176.432678445 360.40733052 l 1
 354.97265625 389.676757812 l 1
 354.972700887 389.676485513 l 1
 375.947054391 457.204019966 424.811473967 512.749012657 488.13023779 542.500907424 c 1
 523.067382812 787.987304688 l 1
 538.373046875 785.80859375 l 1
 504.754379664 549.586501503 l 1
 532.470900216 560.225558492 562.554351504 566.063476563 593.99609375 566.063476562 c 0xb8
 610.348856228 566.063476562 626.334185829 564.495122506 641.81018341 561.500439626 c 1
 699.772460938 787.901367188 l 1
 714.749023438 784.067382812 l 1
 656.896642739 558.091220688 l 1
 701.739510554 546.47950323 741.696007621 522.741890046 773.068762478 490.57903799 c 1
 860.120117188 710.784179688 l 1
 874.498046875 705.100585938 l 1
 784.661165358 477.851644826 l 1
 821.806785493 434.156316346 844.216796875 377.520686288 844.216796875 315.625976562 c 0
 844.216796875 177.266601562 731.462890625 65.1884765625 593.99609375 65.1884765625 c 0
 489.830364779 65.1884765625 400.572976832 129.264345521 362.900680687 219.716112187 c 1
 172.993011565 344.177105762 l 1
EndSplineSet
Validated: 1
EndChar

StartChar: U
Encoding: 85 85 20
Width: 600
Flags: W
HStem: 66.6074 15.4316<242.438 357.441> 551.18 15.4326<241.351 308.541 324.017 358.392>
VStem: 50 15.4316<259.168 373.499> 221.537 15.4834<558.571 737.354> 308.541 15.4758<566.469 799.908> 534.567 15.4326<259.047 375.42>
LayerCount: 2
Fore
SplineSet
300 551.1796875 m 0
 170.370117188 551.1796875 65.431640625 446.240234375 65.431640625 316.609375 c 0
 65.431640625 186.978515625 170.370117188 82.0390625 300 82.0390625 c 0
 429.629882812 82.0390625 534.567382812 186.978515625 534.567382812 316.609375 c 0
 534.567382812 446.240234375 428.858398438 551.1796875 300 551.1796875 c 0
300 66.607421875 m 0
 161.8828125 66.607421875 50 179.262695312 50 316.609375 c 0
 50 426.699018598 121.88094878 520.924635681 221.537109375 553.98863262 c 1
 221.537109375 737.353515625 l 1
 237.020507812 737.353515625 l 1
 237.020507812 558.570724924 l 1
 257.139612192 563.817186941 278.244352325 566.612304688 300 566.612304688 c 0
 302.85848126 566.612304688 305.705725634 566.564381862 308.540973876 566.469295458 c 1
 310.580078125 800.04296875 l 1
 326.0625 799.908203125 l 1
 324.016822721 565.474706861 l 1
 450.857803691 553.396347407 550 446.626766237 550 316.609375 c 0
 550 178.491210938 437.345703125 66.607421875 300 66.607421875 c 0
EndSplineSet
Validated: 1
EndChar

StartChar: V
Encoding: 86 86 21
Width: 600
Flags: W
HStem: 64.8145 15.4297<242.438 357.441> 549.31 15.4297<251.392 357.433>
VStem: 50 15.4316<257.345 374.052> 534.568 15.4316<257.224 372.33>
LayerCount: 2
Fore
SplineSet
300 549.309570312 m 0
 170.370117188 549.309570312 65.431640625 444.387695312 65.431640625 314.77734375 c 0
 65.431640625 185.166992188 170.370117188 80.244140625 300 80.244140625 c 0
 429.629882812 80.244140625 534.568359375 185.166992188 534.568359375 314.77734375 c 0
 534.568359375 444.387695312 428.858398438 549.309570312 300 549.309570312 c 0
300 64.814453125 m 0
 161.8828125 64.814453125 50 177.452148438 50 314.77734375 c 0
 50 424.780265787 121.792246666 518.942497548 221.352618502 552.056289898 c 1
 103.766601562 755.721679688 l 1
 117.12890625 763.436523438 l 1
 233.719424357 561.495391881 l 1
 310.846679688 800 l 1
 325.528320312 795.251953125 l 1
 249.314362132 559.571581106 l 1
 265.681288713 562.958417196 282.633257121 564.739257812 300 564.739257812 c 0
 438.1171875 564.739257812 550 452.873046875 550 314.77734375 c 0
 550 176.680664062 437.345703125 64.814453125 300 64.814453125 c 0
EndSplineSet
Validated: 1
EndChar

StartChar: W
Encoding: 87 87 22
Width: 600
Flags: W
HStem: 63.2617 15.4316<242.567 357.561> 547.829 15.4316<241.455 283.026 298.901 358.403>
VStem: 50 15.4316<255.699 371.656> 172.781 15.875<537.008 766.839> 283.026 15.875<563.258 800> 415.126 15.875<535.106 759.828> 534.567 15.4326<255.82 371.095>
LayerCount: 2
Fore
SplineSet
300 78.693359375 m 0
 429.629882812 78.693359375 534.567382812 183.631835938 534.567382812 313.260742188 c 0
 534.567382812 442.890625 429.629882812 547.829101562 300 547.829101562 c 0
 170.370117188 547.829101562 65.431640625 442.890625 65.431640625 313.260742188 c 0
 65.4326171875 183.631835938 171.141601562 78.693359375 300 78.693359375 c 0
283.026367188 562.688255249 m 1
 283.026367188 800 l 1
 298.901367188 800 l 1
 298.901367188 563.258355259 l 1
 299.267401302 563.258355259 299.633612796 563.260742188 300 563.260742188 c 0
 341.522023779 563.260742188 380.67304351 553.079299179 415.125976562 535.106379877 c 1
 415.125976562 759.828125 l 1
 431.000976562 759.828125 l 1
 431.000976562 526.071701889 l 1
 502.414839525 481.901894055 550 402.832100178 550 313.260742188 c 0
 550 175.916015625 438.1171875 63.26171875 300 63.26171875 c 0
 161.8828125 63.26171875 50 175.143554688 50 313.260742188 c 0
 50 404.773641854 99.4557670518 484.769527302 172.78125 528.335559862 c 1
 172.78125 766.838867188 l 1
 188.65625 766.838867188 l 1
 188.65625 537.007709995 l 1
 217.446848249 551.408717493 249.356969885 560.410385008 283.026367188 562.688255249 c 1
EndSplineSet
Validated: 1
EndChar

StartChar: X
Encoding: 88 88 23
Width: 753
Flags: W
HStem: 20.5557 15.4248<242.439 357.443> 504.888 15.4248<242.439 358.105> 783.699 14.1582<307.308 542.668>
VStem: 50 15.4326<213.021 327.848> 293.149 14.1582<636.134 783.699> 534.571 11.6047<223.16 490.294> 542.668 14.1615<607.657 783.699> 626.796 26.0488<529.754 786.829 786.967 799.996>
LayerCount: 2
Fore
SplineSet
639.80859375 786.973632812 m 1
 639.80859375 506.518554688 l 1025xf9
293.149414062 797.857421875 m 1
 556.829101562 797.857421875 l 1
 556.829101562 792.516262993 l 1
 556.895833333 792.516262993 556.962565104 792.51171875 557.029296875 792.51171875 c 1
 556.962653169 789.575004103 556.896009464 786.638289456 556.82923366 783.70157481 c 0
 553.278097768 627.217587476 549.726961875 470.733600143 546.17595808 314.249612809 c 0
 548.691022567 300.024527636 550.002929688 285.383281738 550.002929688 270.434570312 c 0
 550.002929688 132.383789062 437.34765625 20.5556640625 300.000976562 20.5556640625 c 0
 161.883789062 20.5556640625 50 133.155273438 50 270.434570312 c 0
 50 407.712890625 161.883789062 520.3125 300.000976562 520.3125 c 0
 406.143666462 520.3125 496.792864536 454.269068791 533.076088521 361.035187021 c 1
 542.667724312 783.69921875 l 1
 307.307617188 783.69921875 l 1
 307.307617188 636.133789062 l 1
 293.149414062 636.133789062 l 1
 293.149414062 783.69921875 l 1
 293.149414062 790.778320312 l 1
 293.149414062 797.857421875 l 1
564.927734375 575.80859375 m 0
 566.948242188 577.829101562 569.743164062 579.080078125 572.825195312 579.080078125 c 0
 575.907226562 579.080078125 578.698242188 577.829101562 580.719726562 575.80859375 c 2
 626.795973852 529.73158492 l 1
 626.795973852 596.944833988 626.795898438 786.966796875 626.795898438 786.966796875 c 2
 626.796875 794.159179688 632.624023438 800 639.805664062 800 c 0
 647.0078125 800 652.844726562 794.166015625 652.844726562 786.979492188 c 2
 652.844726562 529.754280275 l 1
 698.921875 575.80859375 l 2
 700.942382812 577.829101562 703.737304688 579.080078125 706.819335938 579.080078125 c 0
 709.901367188 579.080078125 712.692382812 577.829101562 714.713867188 575.80859375 c 0
 716.735351562 573.7890625 717.986328125 570.995117188 717.986328125 567.915039062 c 0
 717.986328125 564.834960938 716.735351562 562.043945312 714.713867188 560.024414062 c 2
 639.805664062 485.15234375 l 1
 564.927734375 560.024414062 l 2
 562.905273438 562.043945312 561.654296875 564.837890625 561.654296875 567.91796875 c 0
 561.654296875 570.998046875 562.905273438 573.7890625 564.927734375 575.80859375 c 0
300.000976562 504.887695312 m 0
 170.37109375 504.887695312 65.4326171875 400.000976562 65.4326171875 270.434570312 c 0
 65.4326171875 140.868164062 170.37109375 35.98046875 300.000976562 35.98046875 c 0
 429.631835938 35.98046875 534.571289062 140.8671875 534.571289062 270.434570312 c 0
 534.571289062 400.000976562 428.860351562 504.887695312 300.000976562 504.887695312 c 0
EndSplineSet
Validated: 3
EndChar

StartChar: Y
Encoding: 89 89 24
Width: 966
Flags: W
HStem: 100 15.4453<349.21 464.294> 312.831 25.7159<822.441 871.447> 555.468 20.7949<735.88 770.084> 584.998 15.4473<348.716 464.52> 679.393 20G<50 77.6669> 679.393 20G<50 77.6669>
VStem: 156.637 15.4434<292.73 408.477> 641.547 15.4434<292.61 408.811> 770.532 26.7752<354.861 498.631> 849.058 21.2041<490.833 526.213>
LayerCount: 2
Fore
SplineSet
845.716796875 603.284179688 m 1xf3c0
 870.587890625 503.939453125 l 2
 871.08203125 501.959960938 871.021484375 499.797851562 870.26171875 497.706054688 c 0
 868.956054688 494.108398438 865.936523438 491.546875 862.438476562 490.624023438 c 0
 860.404296875 490.086914062 858.197265625 490.087890625 856.081054688 490.776367188 c 0
 852.442382812 491.9609375 849.907226562 494.8515625 849.057617188 498.255859375 c 2
 834.085718131 558.051050269 l 1
 810.18644743 510.984597875 797.307566731 456.899450076 797.307566731 414.165712211 c 0
 797.307566731 395.196643268 799.845197239 378.464234857 805.083007812 365.575195312 c 0
 809.790039062 353.990234375 815.844726562 346.787109375 822.145507812 342.727539062 c 0
 828.447265625 338.66796875 835.177734375 337.274414062 843.693359375 338.546875 c 0
 860.724609375 341.092773438 884.694335938 356.506835938 908.124023438 386.833007812 c 0
 911.45703125 391.15234375 917.315429688 393.155273438 922.725585938 391.393554688 c 0
 924.034179688 390.967773438 925.220703125 390.352539062 926.264648438 389.588867188 c 0
 930.586914062 386.4375 932.475585938 380.749023438 930.533203125 375.400390625 c 0
 930.063476562 374.106445312 929.404296875 372.927734375 928.596679688 371.883789062 c 0
 902.641601562 338.288085938 874.790039062 317.685546875 846.935546875 313.522460938 c 0
 843.854379462 313.061830622 840.771586839 312.830928531 837.714104491 312.830928531 c 0
 826.951884608 312.830928531 816.503262284 315.691835074 807.54296875 321.46484375 c 0
 796.038085938 328.877929688 787.166015625 340.633789062 781.04296875 355.700195312 c 0
 773.892163863 373.297328956 770.532380966 394.154341842 770.532380966 416.786076391 c 0
 770.532380966 465.299883908 785.970921962 521.96871631 812.600236971 572.163558199 c 1
 748.873046875 555.314453125 l 2
 746.838867188 554.77734375 744.631835938 554.779296875 742.515625 555.467773438 c 0
 738.876953125 556.65234375 736.341796875 559.54296875 735.4921875 562.946289062 c 0
 734.997070312 564.92578125 735.057617188 567.088867188 735.817382812 569.180664062 c 0
 737.123046875 572.778320312 740.142578125 575.33984375 743.640625 576.262695312 c 2
 845.716796875 603.284179688 l 1xf3c0
406.8125 584.998046875 m 0
 277.091796875 584.998046875 172.080078125 479.967773438 172.080078125 350.22265625 c 0
 172.080078125 220.477539062 277.091796875 115.4453125 406.8125 115.4453125 c 0
 536.533203125 115.4453125 641.546875 220.477539062 641.546875 350.22265625 c 0
 641.546875 479.967773438 535.76171875 584.998046875 406.8125 584.998046875 c 0
766.82421875 796.876953125 m 1
 779.952148438 788.689453125 l 1
 603.204101562 505.283203125 l 1
 636.875976562 462.666992188 656.990234375 408.805664062 656.990234375 350.22265625 c 0
 656.990234375 211.982421875 544.254882812 100 406.8125 100 c 0
 268.59765625 100 156.63671875 212.754882812 156.63671875 350.22265625 c 0
 156.63671875 403.223632812 173.293945312 452.541015625 201.66796875 493.1484375 c 1
 50 689.94921875 l 1
 62.25390625 699.392578125 l 1xfbc0
 211.28125 506.013671875 l 1
 257.116210938 563.446289062 327.651367188 600.4453125 406.8125 600.4453125 c 0
 480.6171875 600.4453125 546.927734375 568.505859375 592.7109375 517.697265625 c 1
 766.82421875 796.876953125 l 1
EndSplineSet
Validated: 524289
EndChar

StartChar: Z
Encoding: 90 90 25
Width: 823
Flags: W
HStem: 15.3955 15.4346<250.164 365.167> 500.024 15.4336<250.47 365.158> 516.334 21G<692.198 698.511> 562.024 45.2998<612.321 699.566> 635.252 20G<692.567 698.905> 707.389 44.4541<538.465 634.461>
VStem: 50 15.4277<378.107 800> 57.7256 15.4316<209.187 323.608 351.067 698.076> 542.294 15.4316<207.858 322.996>
LayerCount: 2
Fore
SplineSet
773.228515625 584.676757812 m 1xfc80
 705.571289062 519.826171875 l 2
 703.016078883 517.376801032 700.036130064 516.333916146 696.985805696 516.333916146 c 0
 687.41012207 516.333916146 677.140901936 526.611331363 677.140901936 535.917614264 c 0
 677.140901936 539.019226396 678.281571716 542.012968478 680.96875 544.482421875 c 2
 699.566323651 561.573105404 l 1
 534.409179688 562.024414062 l 1
 534.409179688 601.069335938 l 1
 634.4609375 707.388671875 l 1
 538.46484375 707.388671875 l 1
 538.46484375 751.842773438 l 1
 710.852539062 751.842773438 l 1
 710.852539062 713.474609375 l 1
 612.321289062 607.32421875 l 1
 700.818246057 607.717661533 l 1
 682.334960938 625.544921875 l 2
 678.975008485 628.786116843 677.574600973 632.439324284 677.574600973 636.046695241 c 0
 677.574600973 645.817690762 687.848858592 655.252401424 697.286132139 655.252401424 c 0
 700.523777252 655.252401424 703.66291185 654.14196427 706.254882812 651.553710938 c 2
 773.228515625 584.676757812 l 1xfc80
307.725585938 15.3955078125 m 0
 169.608398438 15.3955078125 57.7255859375 128.064453125 57.7255859375 265.426757812 c 0xfd80
 57.7255859375 272.196574077 57.9973398629 278.906407508 58.5305950168 285.545727184 c 2
 50 800 l 1
 65.427734375 800.255859375 l 1xfe80
 72.8761164844 351.066559656 l 1
 107.904763263 446.67229498 199.806908342 515.458007812 307.725585938 515.458007812 c 0
 445.842773438 515.458007812 557.725585938 403.561523438 557.725585938 265.426757812 c 0
 557.725585938 127.291992188 445.071289062 15.3955078125 307.725585938 15.3955078125 c 0
73.9698871575 285.115494874 m 0
 73.4315718863 278.624345381 73.1570455004 272.057852549 73.1572265625 265.426757812 c 0
 73.1572265625 135.78125 178.095703125 30.830078125 307.725585938 30.830078125 c 0
 437.35546875 30.830078125 542.293945312 135.78125 542.293945312 265.426757812 c 0
 542.293945312 395.073242188 436.583984375 500.024414062 307.725585938 500.024414062 c 0
 184.725951491 500.024414062 83.9565088367 405.534669088 73.9698871575 285.115494874 c 0
EndSplineSet
Validated: 8912897
EndChar

StartChar: a
Encoding: 97 97 26
Width: 669
Flags: W
HStem: 100 12.3262<373.419 465.401> 480.136 8.47622<60.653 125.274> 487.674 12.3262<372.331 465.401>
VStem: 219.598 12.3262<253.965 385.474> 606.896 12.3242<253.965 346.037>
LayerCount: 2
Fore
SplineSet
419.41015625 500 m 0xb8
 529.693359375 500 619.220703125 410.381835938 619.220703125 300.000976562 c 0
 619.220703125 189.620117188 529.693359375 100 419.41015625 100 c 0
 309.126953125 100 219.59765625 189.620117188 219.59765625 300.000976562 c 0
 219.59765625 312.680664062 220.793945312 325.080078125 223.052734375 337.107421875 c 0
 223.4596597 341.310538423 223.660081071 345.503518414 223.660081071 349.673770419 c 0
 223.660081071 396.644437029 198.234383508 440.731803996 156.07421875 463.944335938 c 0
 136.325425932 474.817111229 114.67088295 480.135642582 93.1501854753 480.135642582 c 0
 61.5501194357 480.135642582 30.2386339695 468.668505103 5.6728515625 446.48046875 c 1
 -0 452.782226562 l 1
 26.1519961405 476.402915839 59.5114644425 488.611860601 93.1725575199 488.611860601 c 0xd8
 116.092516867 488.611860601 139.152318421 482.951431105 160.171875 471.37890625 c 0
 199.869140625 449.5234375 225.642578125 410.245117188 231.068359375 366.853515625 c 1
 258.577148438 444.399414062 332.549804688 500 419.41015625 500 c 0xb8
419.41015625 487.673828125 m 0xb8
 315.793945312 487.673828125 231.923828125 403.727539062 231.923828125 300.000976562 c 0
 231.923828125 196.274414062 315.793945312 112.326171875 419.41015625 112.326171875 c 0
 523.026367188 112.326171875 606.896484375 196.274414062 606.896484375 300.000976562 c 0
 606.896484375 403.727539062 523.026367188 487.673828125 419.41015625 487.673828125 c 0xb8
EndSplineSet
Validated: 524289
EndChar

StartChar: b
Encoding: 98 98 27
Width: 500
Flags: W
HStem: 100 12.3457<204.821 294.986> 487.654 12.3457<222.17 279.574> 628.35 20G<124.531 136.875 209.573 221.917 281.175 293.519 359.96 372.304>
VStem: 50 12.3636<255.499 297.381 306.485 345.559> 124.531 12.3438<464.811 648.35> 209.573 12.3438<498.033 691.744> 281.175 12.3438<497.587 693.362> 359.96 12.3438<467.106 655.329> 437.654 12.3457<254.821 346.766>
LayerCount: 2
Fore
SplineSet
250 100 m 0
 139.505859375 100 50 190.123046875 50 300 c 0
 50 362.620159316 79.0714428709 418.824263181 124.53125 455.586495928 c 1
 124.53125 648.349609375 l 1
 136.875 648.349609375 l 1
 136.875 464.810688061 l 1
 158.434195236 479.669853619 183.044330711 490.417358894 209.573242188 495.890444977 c 1
 209.573242188 691.744140625 l 1
 221.916992188 691.744140625 l 1
 221.916992188 498.033149506 l 1
 231.092480663 499.329324885 240.468145336 500 250 500 c 0
 260.60513928 500 271.016934367 499.175471403 281.174804688 497.586994783 c 1
 281.174804688 693.362304688 l 1
 293.518554688 693.362304688 l 1
 293.518554688 495.256121191 l 1
 317.586555466 489.919827702 340.020371351 480.249874774 359.959960938 467.106303812 c 1
 359.959960938 655.329101562 l 1
 372.303710938 655.329101562 l 1
 372.303710938 458.281674311 l 1
 419.574837119 421.708330145 450 364.421372181 450 300 c 0
 450 189.505859375 359.875976562 100 250 100 c 0
62.3635741196 297.380714882 m 1
 63.762972855 194.886003269 147.17041104 112.345703125 250 112.345703125 c 0
 353.704101562 112.345703125 437.654296875 196.295898438 437.654296875 300 c 0
 437.654296875 403.704101562 353.0859375 487.654296875 250 487.654296875 c 0
 148.466411868 487.654296875 65.8684899665 407.181459839 62.4554400774 306.484991547 c 1
 198.341796875 297.698242188 l 1
 197.754882812 288.625976562 l 1
 62.3635741196 297.380714882 l 1
EndSplineSet
Validated: 524289
EndChar

StartChar: c
Encoding: 99 99 28
Width: 458
Flags: W
HStem: 100 12.8178<160.834 256.55> 487.17 12.8292<161.428 256.391>
VStem: 395.657 12.824<253.833 345.312>
LayerCount: 2
Fore
SplineSet
205.766601562 499.98046875 m 0
 206.688853311 499.993292801 207.611642043 499.999714523 208.534902796 499.999714523 c 0
 227.649165478 499.999714523 246.965743538 497.247274668 265.908203125 491.5703125 c 0
 345.336914062 467.767578125 401.857421875 397.35546875 407.939453125 314.653320312 c 0
 408.301959742 309.724033563 408.480863652 304.811780794 408.480863652 299.924596111 c 0
 408.480863652 222.816008661 363.945210607 151.947774664 293.329101562 118.875 c 0
 266.218932333 106.178412304 237.285650477 100.000123682 208.57345452 100.000123682 c 0
 157.756438824 100.000123682 107.631965805 119.353363928 69.533203125 156.174804688 c 1
 78.4658203125 165.40625 l 1
 114.135078906 130.933058658 161.007754984 112.817933136 208.544546528 112.817933136 c 0
 235.41177872 112.817933136 262.491154407 118.604586567 287.879882812 130.495117188 c 0
 353.994944422 161.46029459 395.656870942 227.720953442 395.656870942 299.905301001 c 0
 395.656870942 304.484860736 395.489183424 309.088263072 395.149414062 313.708007812 c 0
 389.455078125 391.145507812 336.595703125 456.991210938 262.225585938 479.278320312 c 0
 244.478772504 484.596654975 226.39185537 487.170470673 208.494500336 487.170470673 c 0
 151.390875831 487.170470673 96.2170017827 460.968914351 60.1767578125 414.110351562 c 1
 50 421.922851562 l 1
 87.9150390625 471.220703125 145.719726562 499.14453125 205.766601562 499.98046875 c 0
EndSplineSet
Validated: 524289
EndChar

StartChar: d
Encoding: 100 100 29
Width: 500
Flags: W
HStem: 99.9639 12.3701<203.967 296.027> 487.594 12.3691<203.967 296.874>
VStem: 50 12.3711<253.936 345.996> 437.624 12.376<254.821 751.029>
LayerCount: 2
Fore
SplineSet
249.997070312 487.59375 m 0
 146.299804688 487.59375 62.37109375 403.663085938 62.37109375 299.965820312 c 0
 62.37109375 196.268554688 146.299804688 112.333984375 249.997070312 112.333984375 c 0
 353.694335938 112.333984375 437.624023438 196.268554688 437.624023438 299.965820312 c 0
 437.624023438 403.663085938 353.694335938 487.59375 249.997070312 487.59375 c 0
437.624023438 369.290691289 m 1
 437.624023438 751.029296875 l 1
 442.977539062 751.029296875 l 1
 450 751.029296875 l 1
 450 304.961914062 l 1
 450 299.965820312 l 2
 450 189.583007812 360.379882812 99.9638671875 249.997070312 99.9638671875 c 0
 139.61328125 99.9638671875 50 189.583007812 50 299.965820312 c 0
 50 410.348632812 139.61328125 499.962890625 249.997070312 499.962890625 c 0
 336.01152085 499.962890625 409.406223681 445.544640319 437.624023438 369.290691289 c 1
EndSplineSet
Validated: 524289
EndChar

StartChar: e
Encoding: 101 101 30
Width: 500
Flags: W
HStem: 100 11.9424<61.9404 438.048> 302.981 11.9443<61.9404 216.222> 488.053 11.9473<61.9404 438.048>
VStem: 50 11.9404<111.942 302.981 314.926 488.053> 438.048 11.9473<111.942 488.053>
LayerCount: 2
Fore
SplineSet
50 500 m 1
 449.995117188 500 l 1
 449.995117188 100 l 1
 50 100 l 1
 50 302.981445312 l 1
 49.9951171875 302.981445312 l 1
 49.9951171875 310.358398438 l 1
 49.9951171875 314.92578125 l 1
 49.9952386127 314.92578125 l 1
 49.9952386127 374.625325521 50 434.324869792 50 494.024414062 c 2
 50 500 l 1
61.9404296875 302.981445312 m 1
 61.9404296875 111.942382812 l 1
 438.047851562 111.942382812 l 1
 438.047851562 488.052734375 l 1
 61.9404296875 488.052734375 l 1
 61.9404296875 314.92578125 l 1
 216.220703125 314.92578125 l 1
 216.220703125 310.358398438 l 1
 216.221679688 310.358398438 l 1
 216.221679688 307.541992188 l 1
 216.220703125 307.541992188 l 1
 216.220703125 302.981445312 l 1
 61.9404296875 302.981445312 l 1
EndSplineSet
Validated: 524289
EndChar

StartChar: f
Encoding: 102 102 31
Width: 726
Flags: W
HStem: 100 12.3457<429.582 521.73> 487.654 12.3457<428.372 513.455> 657.012 20G<416.146 431.204 555.186 571.768 681.021 699.93>
VStem: 275.777 12.3457<252.76 343.901> 663.432 12.3457<253.951 347.03>
LayerCount: 2
Fore
SplineSet
475.77734375 487.654296875 m 0
 372.073242188 487.654296875 288.123046875 403.704101562 288.123046875 300 c 0
 288.123046875 196.295898438 372.073242188 112.345703125 475.77734375 112.345703125 c 0
 579.481445312 112.345703125 663.431640625 196.295898438 663.431640625 300 c 0
 663.431640625 403.704101562 578.86328125 487.654296875 475.77734375 487.654296875 c 0
290.88455916 223.839542908 m 1
 139.718336417 322.91031684 l 1
 1.9140625 300.319335938 l 1
 -0 311.994140625 l 1
 125.085911211 332.500062905 l 1
 51.185546875 380.932617188 l 1
 57.15625 390.04296875 l 1
 140.981060322 335.105829527 l 1
 284.477539062 358.629882812 l 1
 284.51005386 358.431457901 l 1
 301.147871709 412.663468597 340.307922195 457.29595626 391.119087915 481.16403138 c 1
 418.9921875 677.01171875 l 1
 431.204101562 675.274414062 l 1
 404.381929482 486.816562709 l 1
 426.553505624 495.328724518 450.621490327 500 475.77734375 500 c 0
 488.868821841 500 501.665692971 498.743512961 514.053989804 496.344501346 c 1
 560.306640625 677.01171875 l 1
 571.767578125 674.078125 l 1
 525.600984647 493.74980587 l 1
 561.780262913 484.480309588 594.000197686 465.349674575 619.229653672 439.388906523 c 1
 688.927734375 615.6953125 l 1
 699.9296875 611.345703125 l 1
 628.107421875 429.666015625 l 1
 628.065116149 429.682741144 l 1
 657.820955354 394.770168386 675.77734375 349.490363225 675.77734375 300 c 0
 675.77734375 189.505859375 585.653320312 100 475.77734375 100 c 0
 392.351557678 100 320.890393901 151.375727392 290.88455916 223.839542908 c 1
284.714702879 240.905614796 m 1
 278.905700993 259.606775234 275.77734375 279.458174041 275.77734375 300 c 0
 275.77734375 315.846975285 277.639135116 331.283053983 281.15716603 346.097129614 c 1
 155.613402743 325.516078836 l 1
 284.714702879 240.905614796 l 1
EndSplineSet
Validated: 524289
EndChar

StartChar: v
Encoding: 118 118 32
Width: 500
Flags: W
HStem: 100 12.3438<203.951 295.953> 487.597 12.3438<209.931 295.946> 638.897 20G<93.0137 115.25 252.209 270.423>
VStem: 50 12.3457<254.99 347.811> 437.654 12.3457<253.928 346.012>
LayerCount: 2
Fore
SplineSet
250 100 m 0
 139.505859375 100 50 190.110351562 50 299.969726562 c 0
 50 387.972805093 107.43349268 463.30284201 187.081832868 489.793990188 c 1
 93.013671875 652.725585938 l 1
 103.703125 658.897460938 l 1
 196.975888349 497.345160217 l 1
 258.676757812 688.1484375 l 1
 270.422851562 684.350585938 l 1
 209.451892876 495.806384628 l 1
 222.545301244 498.515791521 236.106739015 499.940429688 250 499.940429688 c 0
 360.494140625 499.940429688 450 410.447265625 450 299.969726562 c 0
 450 189.493164062 359.876953125 100 250 100 c 0
205.048012889 482.187998879 m 1
 205.047851562 482.1875 l 1
 205.047044224 482.187761125 l 1
 123.080639712 462.069269306 62.345703125 388.16370405 62.345703125 299.969726562 c 0
 62.345703125 196.282226562 146.295898438 112.34375 250 112.34375 c 0
 353.704101562 112.34375 437.654296875 196.282226562 437.654296875 299.969726562 c 0
 437.654296875 403.658203125 353.0859375 487.596679688 250 487.596679688 c 0
 234.503513504 487.596679688 219.448117409 485.722394382 205.048012889 482.187998879 c 1
EndSplineSet
Validated: 524289
EndChar

StartChar: g
Encoding: 103 103 33
Width: 529
Flags: W
HStem: 100 12.3457<233.439 325.441> 487.654 12.3457<233.419 325.434> 699.873 20G<113.817 127.687>
VStem: 79.4883 12.3457<255.014 323.09> 467.143 12.3457<253.951 346.049>
LayerCount: 2
Fore
SplineSet
279.48828125 100 m 0
 168.994140625 100 79.48828125 190.124023438 79.48828125 300 c 0
 79.48828125 307.324581902 79.8860255183 314.561381809 80.6612171087 321.689554285 c 2
 18.3935546875 498.801757812 l 1
 30.0390625 502.895507812 l 1
 84.9878502559 346.598469291 l 1
 85.5287529095 348.850083039 86.1079361203 351.087245161 86.7246760906 353.309212299 c 2
 115.380859375 719.873046875 l 1
 127.686523438 718.911132812 l 1
 102.156998042 392.331744689 l 1
 135.552264831 456.149576961 202.414226121 500 279.48828125 500 c 0
 389.982421875 500 479.48828125 410.494140625 479.48828125 300 c 0
 479.48828125 189.505859375 389.364257812 100 279.48828125 100 c 0
93.2378703548 323.090118946 m 0
 92.3111151633 315.524021512 91.833984375 307.818146402 91.833984375 300 c 0
 91.833984375 196.296875 175.784179688 112.345703125 279.48828125 112.345703125 c 0
 383.19140625 112.345703125 467.142578125 196.296875 467.142578125 300 c 0
 467.142578125 403.704101562 382.57421875 487.654296875 279.48828125 487.654296875 c 0
 193.624198426 487.654296875 121.302158717 430.103291517 98.960346554 351.439465232 c 0
 98.960346554 351.417000259 98.955078125 351.394535286 98.955078125 351.372070312 c 1
 98.9505586013 351.372070312 98.9460390776 351.37313008 98.9415195539 351.37313008 c 0
 96.3461624312 342.222187184 94.4271027794 332.78575745 93.2416772803 323.121177561 c 0
 93.2416772803 323.112360561 93.2509765625 323.103543562 93.2509765625 323.094726562 c 1
 93.2466078266 323.094726562 93.2422390907 323.090118946 93.2378703548 323.090118946 c 0
EndSplineSet
Validated: 524289
EndChar

StartChar: h
Encoding: 104 104 34
Width: 510
Flags: W
HStem: -4.8877 8.69727<250.271 310> 65.0527 8.62598<192.869 197.944 362.328 387.926> 99.9982 10.9575<238.398 321.087> 449.05 10.9601<239.019 321.301> 517.772 49.8252G<-0.0527344 34.1436 101.816 103.49 103.49 109.153 185.357 198.142>
VStem: 100.032 10.9528<238.977 321.543> 146.115 8.62305<35.8394 61.1813> 405.527 8.62598<35.8394 39.2744> 448.99 11.2514<237.43 322.086>
LayerCount: 2
Fore
SplineSet
406.299804688 81.447265625 m 1
 414.076171875 40.9130859375 l 2
 414.126953125 40.646484375 414.153320312 40.37109375 414.153320312 40.08984375 c 0
 414.153320312 37.9697265625 412.629882812 36.205078125 410.620117188 35.8203125 c 0
 410.354492188 35.7685546875 410.079101562 35.7421875 409.797851562 35.7421875 c 0
 407.676757812 35.7421875 405.912109375 37.265625 405.52734375 39.2744140625 c 2
 405.52734375 39.2744140625 402.283405868 56.184781732 400.514718571 65.4153011971 c 1
 367.782093624 20.5247442895 324.952062955 -4.8876953125 280.135742188 -4.8876953125 c 1
 235.320587607 -4.8876953125 192.486292629 20.5234216082 159.753498713 65.4117964026 c 1
 154.73828125 39.2744140625 l 2
 154.353515625 37.265625 152.584960938 35.74609375 150.46484375 35.74609375 c 0
 150.182617188 35.74609375 149.911132812 35.7685546875 149.645507812 35.8203125 c 0
 147.635742188 36.205078125 146.115234375 37.97265625 146.115234375 40.09375 c 0
 146.115234375 40.375 146.138671875 40.646484375 146.189453125 40.9130859375 c 0
 146.193359375 40.916015625 153.965820312 81.447265625 153.965820312 81.447265625 c 1
 194.506835938 73.6787109375 l 2
 196.516601562 73.2939453125 198.037109375 71.525390625 198.037109375 69.4052734375 c 0
 198.037109375 69.1240234375 198.013671875 68.8525390625 197.962890625 68.5859375 c 0
 197.577148438 66.5771484375 195.80859375 65.056640625 193.688476562 65.056640625 c 0
 193.407226562 65.056640625 193.135742188 65.080078125 192.869140625 65.130859375 c 2
 192.869140625 65.130859375 176.446285564 68.2792589052 167.13409302 70.0630197973 c 1
 198.57642895 27.1502488241 238.761617886 3.80957031503 280.135742188 3.8095703125 c 0
 321.509241972 3.8095703125 361.688554368 27.1495441999 393.129313431 70.0610765808 c 1
 367.40234375 65.130859375 l 2
 367.135742188 65.080078125 366.861328125 65.052734375 366.579101562 65.052734375 c 0
 364.458984375 65.052734375 362.693359375 66.5771484375 362.30859375 68.5859375 c 0
 362.2578125 68.8525390625 362.23046875 69.1279296875 362.23046875 69.41015625 c 0
 362.23046875 71.5283203125 363.751953125 73.2919921875 365.758789062 73.6787109375 c 1
 365.754882812 73.6826171875 406.299804688 81.447265625 406.299804688 81.447265625 c 1
279.098632812 449.046875 m 0
 233.134765625 448.774414062 187.451171875 429.8515625 154.291015625 392.934570312 c 0
 125.273058489 360.628383514 110.984345802 320.264483235 110.984345802 280.046375426 c 0
 110.984345802 233.752151041 129.916649408 187.651099223 167.109375 154.254882812 c 0
 199.420525407 125.2419467 239.79106261 110.955694849 280.015835768 110.955694849 c 0
 326.317813509 110.955694849 372.426655669 129.884804127 405.828125 167.071289062 c 0
 434.790126938 199.315684449 448.990031611 239.667102232 448.990031611 279.857516521 c 0
 448.990031611 326.285536861 430.040398977 372.498699628 393.0078125 405.750976562 c 0
 360.696132572 434.764854496 320.32553277 449.049831675 280.100978249 449.049831675 c 0
 279.766851459 449.049831675 279.432734746 449.048846032 279.098632812 449.046875 c 0
118.37708217 443.659295071 m 1
 124.774819987 371.332299027 l 1
 130.760610947 381.519239804 137.833452411 391.254260502 146.015625 400.364257812 c 0
 150.312543621 405.147817209 154.817108036 409.641014766 159.497926526 413.853006404 c 1
 159.517018309 414.056877902 l 1
 118.37708217 443.659295071 l 1
106.725589321 452.04317663 m 1
 -0.052734375 528.875976562 l 1
 6.3486328125 537.772460938 l 1
 105.450010782 466.463640168 l 1
 96.55859375 566.981445312 l 1
 101.816456502 567.446755494 l 1
 103.490234375 567.59765625 l 1
 103.490477944 567.594902994 l 1
 107.383789062 567.939453125 l 1
 117.101509818 458.079754156 l 1
 160.701661042 426.707078691 l 1
 187.229492188 709.984375 l 1
 198.141601562 708.961914062 l 1
 171.429014125 423.712627985 l 1
 203.276408425 447.767091447 241.678831147 460.009935258 280.217827846 460.009935258 c 0
 323.062595633 460.009935258 366.076159647 444.87860581 400.439453125 414.0234375 c 0
 440.068164375 378.439069545 460.241391185 329.296072717 460.241391185 279.949303928 c 0
 460.241391185 237.082340896 445.018281965 194.06160758 414.1015625 159.641601562 c 0
 378.548861746 120.060816304 329.345467272 99.9981649258 279.996009743 99.9981649258 c 0
 237.029659868 99.9981649258 193.952588347 115.206458299 159.677734375 145.982421875 c 0
 120.093317479 181.526461106 100.031527902 230.715533462 100.031527902 280.051981819 c 0
 100.031527902 304.981460622 105.153772396 329.948567969 115.46782072 353.211920692 c 1
 106.725589321 452.04317663 l 1
EndSplineSet
Validated: 524321
EndChar

StartChar: i
Encoding: 105 105 35
Width: 500
Flags: W
HStem: 100 12.3486<203.952 295.954> 487.744 12.3477<203.951 295.526> 559.028 20G<429.886 442.783>
VStem: 50 12.3477<254.083 346.01> 429.886 12.3389<374.773 578.685> 437.649 12.3428<254.857 552.259>
LayerCount: 2
Fore
SplineSet
250 487.744140625 m 0xf4
 146.298828125 487.744140625 62.34765625 403.774414062 62.34765625 300.046875 c 0
 62.34765625 196.319335938 146.298828125 112.348632812 250.002929688 112.348632812 c 0
 353.706054688 112.348632812 437.657226562 196.319335938 437.657226562 300.046875 c 0
 437.657226562 300.186523438 437.650390625 300.325195312 437.649414062 300.463867188 c 2
 437.377929688 310.173828125 l 2
 432.086914062 409.184570312 349.708984375 487.744140625 250 487.744140625 c 0xf4
442.224609375 579.028320312 m 1xf8
 449.708007812 310.860351562 l 2
 449.887695312 307.48828125 449.985351562 304.09375 449.9921875 300.677734375 c 2xf4
 450 300.390625 l 2
 449.997070312 300.275390625 450 300.162109375 450 300.046875 c 0
 450 189.52734375 359.875976562 100 250 100 c 0
 139.505859375 100 50 190.145507812 50 300.046875 c 0
 50 409.948242188 139.505859375 500.091796875 250 500.091796875 c 0
 334.077148438 500.091796875 405.989257812 448.250976562 435.575195312 374.7734375 c 1
 429.885742188 578.684570312 l 1
 442.224609375 579.028320312 l 1xf8
EndSplineSet
Validated: 524289
EndChar

StartChar: j
Encoding: 106 106 36
Width: 596
Flags: W
HStem: 43.752 13.7275<500.984 527.908> 100 12.3486<203.952 295.954> 176.551 11.3848<453.518 479.205> 487.743 12.3486<203.951 295.526> 559.027 20G<429.886 442.783>
VStem: 50 12.3477<254.083 346.01> 429.886 12.3389<374.773 578.685> 437.649 12.3428<254.857 552.258> 472.497 14.7056<66.4965 145.248> 515.588 11.6426<141.093 167.855>
LayerCount: 2
Fore
SplineSet
250 487.743164062 m 0xfdc0
 146.298828125 487.743164062 62.34765625 403.774414062 62.34765625 300.046875 c 0
 62.34765625 196.319335938 146.298828125 112.348632812 250.002929688 112.348632812 c 0
 353.706054688 112.348632812 437.657226562 196.319335938 437.657226562 300.046875 c 0
 437.657226562 300.186523438 437.650390625 300.32421875 437.649414062 300.463867188 c 2
 437.377929688 310.172851562 l 2
 432.086914062 409.18359375 349.708984375 487.743164062 250 487.743164062 c 0xfdc0
442.224609375 579.02734375 m 1xfec0
 449.708007812 310.861328125 l 2
 449.887695312 307.48828125 449.984375 304.09375 449.9921875 300.678710938 c 2xfdc0
 450 300.390625 l 2
 449.997070312 300.275390625 450 300.162109375 450 300.046875 c 0
 450 189.52734375 359.875976562 100 250 100 c 0
 139.505859375 100 50 190.145507812 50 300.046875 c 0
 50 409.948242188 139.505859375 500.091796875 250 500.091796875 c 0
 334.076171875 500.091796875 405.989257812 448.250976562 435.575195312 374.7734375 c 1
 429.885742188 578.684570312 l 1
 442.224609375 579.02734375 l 1xfec0
513.763671875 202.762695312 m 1
 527.412109375 148.272460938 l 2
 527.6796875 147.190429688 527.645507812 146.008789062 527.23046875 144.865234375 c 0
 526.514648438 142.89453125 524.861328125 141.490234375 522.9453125 140.982421875 c 0
 521.823242188 140.682617188 520.60546875 140.681640625 519.438476562 141.061523438 c 0
 517.446289062 141.709960938 516.057617188 143.2890625 515.587890625 145.150390625 c 2
 507.382953186 177.950764505 l 1
 494.265433563 152.126589187 487.202379656 122.45450763 487.202379656 99.0038320804 c 0
 487.202379656 88.5835172576 488.596959825 79.3916015886 491.474609375 72.3115234375 c 0
 494.05859375 65.953125 497.361328125 61.990234375 500.821289062 59.7626953125 c 0
 504.280273438 57.5341796875 508.000976562 56.78125 512.67578125 57.4794921875 c 0
 522.024414062 58.876953125 535.176757812 67.3291015625 548.0390625 83.9736328125 c 0
 549.869140625 86.341796875 553.083007812 87.4384765625 556.051757812 86.47265625 c 0
 556.765625 86.240234375 557.413085938 85.9052734375 557.983398438 85.490234375 c 0
 560.353515625 83.759765625 561.389648438 80.6396484375 560.323242188 77.705078125 c 0
 560.067382812 77 559.708007812 76.3564453125 559.268554688 75.7861328125 c 0
 545.020507812 57.34765625 529.733398438 46.0380859375 514.442382812 43.751953125 c 0
 506.796875 42.6103515625 499.131835938 44.013671875 492.81640625 48.08203125 c 0
 486.5 52.1513671875 481.625976562 58.61328125 478.264648438 66.8828125 c 0
 474.340427436 76.5377188711 472.49678185 87.98170541 472.49678185 100.399849126 c 0
 472.49678185 127.030042249 480.97515851 158.140093939 495.595374924 185.693457486 c 1
 460.62890625 176.462890625 l 2
 459.516601562 176.171875 458.310546875 176.173828125 457.153320312 176.55078125 c 0
 455.16015625 177.19921875 453.76953125 178.782226562 453.301757812 180.645507812 c 0
 453.034179688 181.728515625 453.068359375 182.91015625 453.483398438 184.052734375 c 0
 454.19921875 186.0234375 455.852539062 187.427734375 457.768554688 187.935546875 c 2
 513.763671875 202.762695312 l 1
EndSplineSet
Validated: 524289
EndChar

StartChar: k
Encoding: 107 107 37
Width: 560
Flags: W
HStem: 100 10.9529<288.542 371.181> 448.897 10.9583<289.243 371.812> 537.639 142.823G<50 84.1962 146.611 159.206 235.408 248.193 469.127 491.265> 537.639 21G<467.536 492.862>
VStem: 150.253 10.9529<238.922 321.363> 467.536 25.3262<571.33 671.014> 499.008 11.2448<237.372 321.99>
LayerCount: 2
Fore
SplineSet
480.196289062 700.461914062 m 1xee
 491.264648438 685.737304688 l 1
 502.333984375 671.013671875 l 1
 492.862304688 671.013671875 l 1
 492.862304688 571.330078125 l 1
 505.522460938 571.330078125 l 1
 492.862304688 554.484375 l 1
 480.196289062 537.638671875 l 1
 467.536132812 554.484375 l 1
 454.870117188 571.330078125 l 1
 467.536132812 571.330078125 l 1
 467.536132812 671.013671875 l 1
 458.057617188 671.013671875 l 1
 469.126953125 685.737304688 l 1
 480.196289062 700.461914062 l 1xee
443.059570312 405.618164062 m 0
 410.768143276 434.617753206 370.422495391 448.89738476 330.22242364 448.89738476 c 0
 283.948338452 448.89738476 237.867144372 429.976605073 204.485351562 392.806640625 c 0
 175.485276055 360.515177534 161.205402057 320.169475608 161.205402057 279.969359297 c 0
 161.205402057 233.695319369 180.126424029 187.614182305 217.296875 154.232421875 c 0
 249.588302036 125.232832731 289.933949921 110.953201177 330.134021673 110.953201177 c 0
 376.40810686 110.953201177 422.48930094 129.873980865 455.87109375 167.043945312 c 0
 484.81615984 199.274155646 499.007881018 239.607972497 499.007881018 279.780932383 c 0
 499.007881018 326.187943844 480.069859278 372.380301094 443.059570312 405.618164062 c 0
209.87109375 145.963867188 m 0
 170.306828436 181.494808662 150.252507794 230.668757793 150.252507794 279.988502461 c 0
 150.252507794 304.797116867 155.326751637 329.642621185 165.544525086 352.807149977 c 1
 156.778367797 451.908889013 l 1
 50 528.7421875 l 1
 56.4013671875 537.638671875 l 1
 155.502786086 466.329388395 l 1
 146.611328125 566.84765625 l 1
 157.436523438 567.805664062 l 1
 167.154289935 457.945447982 l 1
 210.753421301 426.573315749 l 1
 237.28125 709.850585938 l 1
 248.193359375 708.829101562 l 1
 221.470478266 423.46896531 l 1
 253.325104828 447.582660116 291.760013579 459.855639963 330.332025673 459.855639963 c 0
 373.153034465 459.855639963 416.143016229 444.729809746 450.486328125 413.88671875 c 0
 490.091536327 378.318538936 510.252712674 329.197314078 510.252712674 279.872377645 c 0
 510.252712674 237.02441181 495.038719468 194.022721486 464.140625 159.618164062 c 0
 428.609651546 120.054385185 379.435366804 100.000307026 330.115317709 100.000307026 c 0
 287.17508789 100.000307026 244.124365505 115.201736596 209.87109375 145.963867188 c 0
174.845497734 370.995658545 m 1
 180.858170356 381.257984654 187.979637597 391.060577108 196.216796875 400.232421875 c 0
 200.466308088 404.964265576 204.914530015 409.418849216 209.538014373 413.594599678 c 1
 209.568776567 413.923093593 l 1
 168.429865457 443.524953052 l 1
 174.845497734 370.995658545 l 1
EndSplineSet
Validated: 8912897
EndChar

StartChar: l
Encoding: 108 108 38
Width: 712
Flags: W
HStem: 100 12.3467<415.627 508.052> 196.328 12.5332<50 284.162> 487.714 12.3467<414.81 508.045> 676.604 20G<254.357 266.947> 676.604 20G<254.357 266.947>
VStem: 254.357 12.1992<365.167 696.412> 262.099 12.3447<253.104 658.459> 649.753 12.3457<253.975 346.087>
LayerCount: 2
Fore
SplineSet
266.556640625 696.603515625 m 1xf5
 273.028320312 365.166992188 l 1
 300.102539062 443.403320312 374.5 500.060546875 462.098632812 500.060546875 c 0
 572.592773438 500.060546875 662.098632812 410.541992188 662.098632812 300.03125 c 0
 662.098632812 189.520507812 571.974609375 100 462.098632812 100 c 0
 389.686523438 100 326.291992188 138.713867188 291.192382812 196.328125 c 1
 50 196.328125 l 1
 50 208.861328125 l 1
 284.162109375 208.861328125 l 1
 270.061523438 236.250976562 262.098632812 267.26171875 262.098632812 300.03125 c 2xf3
 254.357421875 696.412109375 l 1
 266.556640625 696.603515625 l 1xf5
462.098632812 487.713867188 m 0
 358.39453125 487.713867188 274.443359375 403.750976562 274.443359375 300.03125 c 0
 274.443359375 196.311523438 358.39453125 112.346679688 462.098632812 112.346679688 c 0
 565.802734375 112.346679688 649.752929688 196.311523438 649.752929688 300.03125 c 0
 649.752929688 403.750976562 565.184570312 487.713867188 462.098632812 487.713867188 c 0
EndSplineSet
Validated: 8912897
EndChar

StartChar: m
Encoding: 109 109 39
Width: 500
Flags: W
HStem: 100 12.3457<203.083 251.056 263.4 296.821> 487.653 12.3457<203.951 295.946>
VStem: 50 12.3457<254.385 344.986> 145.199 12.3438<-57.2539 122.71> 251.056 12.3447<-89.3916 100> 339.253 12.3438<-62.8633 121.091> 437.654 12.3457<253.26 346.048>
LayerCount: 2
Fore
SplineSet
250 487.653320312 m 0
 146.295898438 487.653320312 62.345703125 403.703125 62.345703125 299.999023438 c 0
 62.345703125 196.295898438 146.295898438 112.345703125 250 112.345703125 c 0
 353.704101562 112.345703125 437.654296875 196.295898438 437.654296875 299.999023438 c 0
 437.654296875 403.703125 353.0859375 487.653320312 250 487.653320312 c 0
251.055664062 100.002754962 m 1
 250.703980424 100.002754962 250.352091632 100 250 100 c 0
 216.639132889 100 185.191521579 108.215462722 157.54296875 122.709598232 c 1
 157.54296875 -57.25390625 l 1
 145.19921875 -57.25390625 l 1
 145.19921875 129.750991442 l 1
 88.0680392554 165.086655156 50 228.342246687 50 299.999023438 c 0
 50 409.875976562 139.505859375 499.999023438 250 499.999023438 c 0
 360.494140625 499.999023438 450 410.493164062 450 299.999023438 c 0
 450 226.714861163 410.355284914 162.662917989 351.596679688 127.834093894 c 1
 351.596679688 -62.86328125 l 1
 339.252929688 -62.86328125 l 1
 339.252929688 121.091356102 l 1
 316.123196215 109.493171934 290.471060412 102.253102887 263.400390625 100.445987491 c 1
 263.400390625 -89.3916015625 l 1
 251.055664062 -89.3916015625 l 1
 251.055664062 100.002754962 l 1
EndSplineSet
Validated: 524289
EndChar

StartChar: n
Encoding: 110 110 40
Width: 500
Flags: W
HStem: 100 12.3457<203.083 251.056 263.4 296.602> 487.653 12.3457<203.951 295.946>
VStem: 50 12.3457<254.385 344.986> 145.199 12.3438<-57.2539 122.71> 251.056 12.3447<-89.3916 100> 437.654 12.3457<254.844 346.048>
LayerCount: 2
Fore
SplineSet
250 487.653320312 m 0
 146.295898438 487.653320312 62.345703125 403.703125 62.345703125 299.999023438 c 0
 62.345703125 196.295898438 146.295898438 112.345703125 250 112.345703125 c 0
 353.704101562 112.345703125 437.654296875 196.295898438 437.654296875 299.999023438 c 0
 437.654296875 403.703125 353.0859375 487.653320312 250 487.653320312 c 0
251.055664062 100.002754962 m 1
 250.703980424 100.002754962 250.352091632 100 250 100 c 0
 216.639132889 100 185.191521579 108.215462722 157.54296875 122.709598232 c 1
 157.54296875 -57.25390625 l 1
 145.19921875 -57.25390625 l 1
 145.19921875 129.750991442 l 1
 88.0680392554 165.086655156 50 228.342246687 50 299.999023438 c 0
 50 409.875976562 139.505859375 499.999023438 250 499.999023438 c 0
 360.494140625 499.999023438 450 410.493164062 450 299.999023438 c 0
 450 194.032671261 367.110214801 107.369185974 263.400390625 100.445987491 c 1
 263.400390625 -89.3916015625 l 1
 251.055664062 -89.3916015625 l 1
 251.055664062 100.002754962 l 1
EndSplineSet
Validated: 524289
EndChar

StartChar: o
Encoding: 111 111 41
Width: 500
Flags: W
HStem: 100 12.3457<203.951 295.953> 197.972 6.22363<227.987 274.369> 393.4 6.22461<227.987 274.365> 487.654 12.3457<203.951 295.946>
VStem: 50 12.3457<254.047 345.953> 150.376 6.22363<275.632 321.964> 345.805 6.22363<275.583 322.013> 437.654 12.3457<253.951 346.049>
LayerCount: 2
Fore
SplineSet
250 100 m 0
 139.505859375 100 50 190.123046875 50 300 c 0
 50 409.876953125 139.505859375 500 250 500 c 0
 360.494140625 500 450 410.494140625 450 300 c 0
 450 189.505859375 359.876953125 100 250 100 c 0
250 487.654296875 m 0
 146.295898438 487.654296875 62.345703125 403.704101562 62.345703125 300 c 0
 62.345703125 196.295898438 146.295898438 112.345703125 250 112.345703125 c 0
 353.704101562 112.345703125 437.654296875 196.295898438 437.654296875 300 c 0
 437.654296875 403.704101562 353.0859375 487.654296875 250 487.654296875 c 0
251.202148438 197.971679688 m 0
 195.499023438 197.971679688 150.375976562 243.40625 150.375976562 298.797851562 c 0
 150.375976562 354.190429688 195.499023438 399.625 251.202148438 399.625 c 0
 306.905273438 399.625 352.028320312 354.501953125 352.028320312 298.797851562 c 0
 352.028320312 243.094726562 306.594726562 197.971679688 251.202148438 197.971679688 c 0
251.202148438 393.400390625 m 0
 198.921875 393.400390625 156.599609375 351.078125 156.599609375 298.797851562 c 0
 156.599609375 246.517578125 198.921875 204.1953125 251.202148438 204.1953125 c 0
 303.482421875 204.1953125 345.8046875 246.517578125 345.8046875 298.797851562 c 0
 345.8046875 351.078125 303.170898438 393.400390625 251.202148438 393.400390625 c 0
EndSplineSet
Validated: 524289
EndChar

StartChar: p
Encoding: 112 112 42
Width: 655
Flags: W
HStem: 99.9997 12.3388<360.334 449.112> 488.014 12.382<359.616 449.643> 508.924 20G<-37.792 -6.935>
VStem: 204.996 12.2517<305.606 344.185> 592.804 12.3337<256.167 344.297>
LayerCount: 2
Fore
SplineSet
373.6484375 485.36328125 m 0
 281.991469717 469.820386151 217.247805305 390.42160774 217.247805305 300.462858266 c 0
 217.247805305 298.226848799 217.287805097 295.984315192 217.368385621 293.736075883 c 1
 217.369140625 293.735351562 l 1
 217.368437843 293.734619024 l 1
 217.66413353 285.486338116 218.506042276 277.161261568 219.922851562 268.799804688 c 0
 223.11697023 249.950421289 229.008592006 232.238797481 237.134888824 215.993726965 c 1
 237.135742188 215.993164062 l 1
 237.135417013 215.992671084 l 1
 268.53932774 153.21491621 333.315388377 112.338553163 404.753387738 112.338553163 c 0
 415.18927901 112.338553163 425.767338054 113.210867022 436.404296875 115.014648438 c 0
 528.060001112 130.55747765 592.804198189 209.956432824 592.804198189 299.91487449 c 0
 592.804198189 310.355160201 591.932147419 320.937673458 590.12890625 331.579101562 c 0
 574.585345263 423.31114776 494.665517033 488.013762167 405.029546821 488.013762167 c 0
 394.670817032 488.013762167 384.182326831 487.149649859 373.6484375 485.36328125 c 0
438.467773438 102.83203125 m 0
 427.20740703 100.922530102 416.007164556 99.9997473402 404.954553251 99.9997473402 c 0
 329.975130753 99.9997473402 261.78981623 142.466970159 227.718285614 207.44077437 c 1
 137.237216297 267.124669824 l 1
 -4.205078125 226.780273438 l 1
 -7.5859375 238.631835938 l 1
 123.673646622 276.071587456 l 1
 28.6025390625 338.783203125 l 1
 35.388671875 349.071289062 l 1
 139.299629903 280.528655755 l 1
 193.989614056 296.128121736 l 1
 -37.7919921875 518.489257812 l 1
 -27.7822265625 528.923828125 l 1
 204.996135934 305.605520418 l 1
 207.545251364 398.968026095 275.731021753 481.291423623 371.583984375 497.545898438 c 0
 382.911864132 499.466831097 394.177769188 500.395778239 405.292959905 500.395778239 c 0
 501.123550448 500.395778239 585.751276868 431.345490246 602.306640625 333.643554688 c 0
 604.215456798 322.37872432 605.13790785 311.174040075 605.13790785 300.117046574 c 0
 605.13790785 204.152506773 535.652951065 119.312985515 438.467773438 102.83203125 c 0
152.863177902 271.581752421 m 1
 218.201770636 228.482552032 l 1
 213.534192247 240.642730196 209.999761233 253.429051066 207.745117188 266.734375 c 0
 206.705079143 272.872274533 205.958561866 278.995687366 205.495438709 285.089936771 c 1
 204.286675442 286.249571384 l 1
 152.863177902 271.581752421 l 1
EndSplineSet
Validated: 524289
EndChar

StartChar: q
Encoding: 113 113 43
Width: 554
Flags: W
HStem: 100 12.3457<257.572 350.016> 487.654 12.3457<258.014 350.009>
VStem: 104.062 12.4199<-78.5654 270.376 298.84 344.986> 491.717 12.3457<253.951 346.049>
LayerCount: 2
Fore
SplineSet
304.0625 487.654296875 m 0
 200.359375 487.654296875 116.408203125 403.703125 116.408203125 300 c 2
 116.408203127 299.999023438 l 1
 116.482421875 299.999023438 l 1
 116.482421875 294.665395846 l 2
 119.302693061 193.432136716 202.143515475 112.345703125 304.0625 112.345703125 c 0
 407.766601562 112.345703125 491.716796875 196.295898438 491.716796875 300 c 0
 491.716796875 403.703125 407.149414062 487.654296875 304.0625 487.654296875 c 0
104.0625 298.839600951 m 1
 104.062500002 299.999023438 l 1
 104.0625 300 l 2
 104.0625 409.875976562 193.569335938 500 304.0625 500 c 0
 414.556640625 500 504.0625 410.493164062 504.0625 300 c 0
 504.0625 189.505859375 413.939453125 100 304.0625 100 c 0
 218.033759519 100 144.726942187 154.632638424 116.482421875 230.685021945 c 1
 116.482421875 -78.5654296875 l 1
 104.0625 -78.5654296875 l 1
 104.0625 270.376458746 l 1
 33.1337890625 124.110351562 l 1
 21.958984375 129.529296875 l 1
 104.0625 298.839600951 l 1
EndSplineSet
Validated: 524289
EndChar

StartChar: r
Encoding: 114 114 44
Width: 500
Flags: W
HStem: 100 12.3486<204.036 296.09> 487.733 12.3477<202.675 296.083> 698.675 19.1143G<44.6738 67.1261 178.816 194.916>
VStem: 50 12.3535<254.079 347.373> 437.871 12.3525<253.982 346.099>
LayerCount: 2
Fore
SplineSet
182.801757812 718.674804688 m 1
 194.916015625 716.259765625 l 1
 159.936523438 540.728515625 l 1
 189.502929688 490.693359375 l 1
 189.456054688 490.666992188 l 1
 208.587890625 496.771484375 228.962890625 500.081054688 250.111328125 500.081054688 c 0
 360.666992188 500.081054688 450.223632812 410.556640625 450.223632812 300.041015625 c 0
 450.223632812 189.524414062 360.048828125 100 250.111328125 100 c 0
 139.555664062 100 50 190.141601562 50 300.041015625 c 0
 50 365.770507812 82.04296875 424.422851562 131.447265625 460.959960938 c 1
 146.900390625 538.512695312 l 1
 44.673828125 711.506835938 l 1
 55.3076171875 717.7890625 l 1
 150.518554688 556.666992188 l 1
 182.801757812 718.674804688 l 1
156.319335938 522.573242188 m 1
 145.997070312 470.776367188 l 1
 156.000976562 476.90234375 166.584960938 482.170898438 177.643554688 486.486328125 c 1
 156.319335938 522.573242188 l 1
250.111328125 487.733398438 m 0
 146.349609375 487.733398438 62.353515625 403.765625 62.353515625 300.041015625 c 0
 62.353515625 196.31640625 146.349609375 112.348632812 250.111328125 112.348632812 c 0
 353.873046875 112.348632812 437.87109375 196.31640625 437.87109375 300.041015625 c 0
 437.87109375 403.765625 353.254882812 487.733398438 250.111328125 487.733398438 c 0
EndSplineSet
Validated: 524293
EndChar

StartChar: s
Encoding: 115 115 45
Width: 500
Flags: W
HStem: 100 12.3457<203.951 295.953> 282.865 10.6702<175.156 251.98> 487.654 12.3457<203.538 295.946>
VStem: 50 12.3457<254.047 332.239> 437.654 12.3457<253.951 346.049>
LayerCount: 2
Fore
SplineSet
250 100 m 0
 139.505859375 100 50 190.123046875 50 300 c 0
 50 409.876953125 139.505859375 500 250 500 c 0
 360.494140625 500 450 410.494140625 450 300 c 0
 450 189.505859375 359.876953125 100 250 100 c 0
67.8936710726 345.51255927 m 1
 112.004863889 322.394842218 155.769282367 299.959914922 193.424804688 294.795898438 c 0
 199.734881228 293.930384624 205.920265713 293.535175574 212.006056249 293.535175574 c 0
 243.000015952 293.535175574 271.410805112 303.785721806 300.553710938 314.3671875 c 1
 304.213867188 304.336914062 l 1
 275.102538772 293.767729173 245.254551908 282.864937408 212.057782153 282.864937408 c 0
 205.49638143 282.864937408 198.804156393 283.290868348 191.9609375 284.229492188 c 0
 152.144037115 289.690695801 108.807485485 311.999224677 65.5383898125 334.680668659 c 1
 63.4418595187 323.442231921 62.345703125 311.850081537 62.345703125 300 c 0
 62.345703125 196.295898438 146.295898438 112.345703125 250 112.345703125 c 0
 353.704101562 112.345703125 437.654296875 196.295898438 437.654296875 300 c 0
 437.654296875 403.704101562 353.0859375 487.654296875 250 487.654296875 c 0
 161.993588143 487.654296875 88.2134038273 427.195642997 67.8936710726 345.51255927 c 1
EndSplineSet
Validated: 524289
EndChar

StartChar: t
Encoding: 116 116 46
Width: 726
Flags: W
HStem: 100 12.3672<429.633 521.819> 488.333 12.3672<428.864 514.953> 658.239 20G<416.237 431.328 555.326 572.429 680.819 700.228>
VStem: 275.648 12.3574<252.881 344.299> 663.646 12.3564<254.221 347.676>
LayerCount: 2
Fore
SplineSet
139.022908463 323.19125844 m 1
 2.0009765625 300.728515625 l 1
 -0 312.93359375 l 1
 123.725893369 333.216645403 l 1
 50.8271484375 380.993164062 l 1
 57.6064453125 391.337890625 l 1
 141.774768008 336.17549457 l 1
 284.607046494 359.590758774 l 1
 301.386535842 413.612757625 340.478135744 458.048782068 391.133114752 481.850262062 c 1
 419.083007812 678.239257812 l 1
 431.328125 676.49609375 l 1
 404.43209476 487.518602569 l 1
 426.605244113 496.02985453 450.671917749 500.700195312 475.825195312 500.700195312 c 0
 488.907768201 500.700195312 501.696386023 499.445454053 514.077519278 497.049599647 c 1
 560.446289062 678.170898438 l 1
 572.428710938 675.103515625 l 1
 526.146099728 494.322337871 l 1
 562.020468725 485.032957287 593.985776135 466.042928807 619.084093168 440.312750546 c 1
 688.725585938 616.4765625 l 1
 700.227539062 611.9296875 l 1
 628.358398438 430.130859375 l 1
 658.074703925 395.174835436 676.002929688 349.86634963 676.002929688 300.350585938 c 0
 676.002929688 189.663085938 585.799804688 100 475.825195312 100 c 0
 392.493582924 100 321.088159169 151.260044016 290.95001628 223.6209804 c 1
 139.022908463 323.19125844 l 1
157.071783102 326.150107607 m 1
 284.051261961 242.930054274 l 1
 278.585052027 261.142669317 275.6484375 280.42230228 275.6484375 300.350585938 c 0
 275.6484375 316.204267095 277.506991123 331.647444051 281.01916766 346.469469502 c 1
 157.071783102 326.150107607 l 1
475.825195312 488.333007812 m 0
 372.030273438 488.333007812 288.005859375 404.235351562 288.005859375 300.350585938 c 0
 288.005859375 196.46484375 372.030273438 112.3671875 475.825195312 112.3671875 c 0
 579.62109375 112.3671875 663.646484375 196.46484375 663.646484375 300.350585938 c 0
 663.646484375 387.85134151 603.596379328 461.314194245 523.000332548 482.30988435 c 2
 521.482375289 482.698498235 l 2
 506.850081199 486.378909468 491.552968929 488.333007812 475.825195312 488.333007812 c 0
EndSplineSet
Validated: 524289
EndChar

StartChar: u
Encoding: 117 117 47
Width: 500
Flags: W
HStem: 100 12.3457<203.951 295.953> 487.658 12.3457<203.08 256.833 269.214 296.713> 616.597 20G<187.229 199.616 258.289 270.85>
VStem: 50 12.3457<254.049 345.514> 187.229 12.3867<493.571 636.597> 256.833 12.3807<499.889 686.641> 437.654 12.3457<253.952 347.05>
LayerCount: 2
Fore
SplineSet
250 487.658203125 m 0
 146.295898438 487.658203125 62.345703125 403.70703125 62.345703125 300.001953125 c 0
 62.345703125 196.297851562 146.295898438 112.345703125 250 112.345703125 c 0
 353.704101562 112.345703125 437.654296875 196.296875 437.654296875 300.001953125 c 0
 437.654296875 403.70703125 353.0859375 487.658203125 250 487.658203125 c 0
250 100 m 0
 139.505859375 100 50 190.124023438 50 300.001953125 c 0
 50 388.073494553 107.504485992 463.453819639 187.229492188 489.904974921 c 1
 187.229492188 636.596679688 l 1
 199.616210938 636.596679688 l 1
 199.616210938 493.570639447 l 1
 215.711541115 497.767810944 232.595397155 500.00390625 250 500.00390625 c 0
 252.286843988 500.00390625 254.564697733 499.965566367 256.832953808 499.889494036 c 1
 258.463867188 686.749023438 l 1
 270.849609375 686.640625 l 1
 269.213630681 499.093819339 l 1
 370.686647244 489.431100716 450 404.01564413 450 300.001953125 c 0
 450 189.506835938 359.876953125 100 250 100 c 0
EndSplineSet
Validated: 524289
EndChar

StartChar: w
Encoding: 119 119 48
Width: 500
Flags: W
HStem: 100 12.3457<204.054 296.049> 487.654 11.8878<203.164 236.422 249.121 296.723> 662.862 6.5293G<148.225 160.925 236.422 249.121 342.101 354.801>
VStem: 50 12.3457<253.951 346.716> 148.225 12.7002<478.998 662.862> 236.422 12.6992<499.998 689.392> 342.101 12.7002<477.477 657.253> 437.654 12.3457<254.047 346.267>
LayerCount: 2
Fore
SplineSet
236.421875 499.542068262 m 1
 236.421875 689.391601562 l 1
 249.12109375 689.391601562 l 1
 249.12109375 499.998090479 l 1
 249.413921037 499.998090479 249.706890232 500 250 500 c 0
 283.217588769 500 314.538320559 491.854865065 342.100585938 477.476590825 c 1
 342.100585938 657.252929688 l 1
 354.80078125 657.252929688 l 1
 354.80078125 470.248736288 l 1
 411.931960745 434.912783627 450 371.65677675 450 300 c 0
 450 190.123046875 360.494140625 100 250 100 c 0
 139.505859375 100 50 189.505859375 50 300 c 0
 50 373.210488262 89.5643445674 437.207044904 148.224609375 472.059813594 c 1
 148.224609375 662.862304688 l 1
 160.924804688 662.862304688 l 1
 160.924804688 478.997632505 l 1
 183.957533794 490.518531333 209.485962082 497.719870352 236.421875 499.542068262 c 1
250 112.345703125 m 0
 353.704101562 112.345703125 437.654296875 196.295898438 437.654296875 300 c 0
 437.654296875 403.703125 353.704101562 487.654296875 250 487.654296875 c 0
 146.295898438 487.654296875 62.345703125 403.703125 62.345703125 300 c 0
 62.345703125 196.295898438 146.9140625 112.345703125 250 112.345703125 c 0
EndSplineSet
Validated: 524289
EndChar

StartChar: x
Encoding: 120 120 49
Width: 619
Flags: W
HStem: 100 12.3398<203.952 295.954> 487.465 12.3398<203.952 296.484> 526.819 20G<467.027 469.493 574.223 576.688> 592.463 21G<244.52 255.846> 710.515 11.3262<255.846 444.134>
VStem: 50 12.3457<253.972 345.833> 244.52 11.3262<592.463 710.515> 437.656 12.3457<254.746 603.041> 444.134 11.4891<409.097 710.515> 511.438 20.8389<507.359 723.552>
LayerCount: 2
Fore
SplineSet
521.846679688 713.133789062 m 1
 521.846679688 488.770507812 l 1025xfe40
244.51953125 721.840820312 m 1
 455.462890625 721.840820312 l 1
 455.462890625 717.56808582 l 1
 455.516276042 717.56808582 455.569661458 717.564453125 455.623046875 717.564453125 c 1xfec0
 446.940535807 334.953836426 l 2
 448.952483757 323.573947471 450.001953125 311.861133701 450.001953125 299.90234375 c 0xff40
 450.001953125 189.462890625 359.877929688 100 250.000976562 100 c 0
 139.506835938 100 50 190.079101562 50 299.90234375 c 0
 50 409.725585938 139.506835938 499.8046875 250.000976562 499.8046875 c 0
 334.915770225 499.8046875 407.434676402 446.970050327 436.460828598 372.382572941 c 1
 444.13399646 710.514648438 l 1xfec0
 255.845703125 710.514648438 l 1
 255.845703125 592.462890625 l 1
 244.51953125 592.462890625 l 1
 244.51953125 710.514648438 l 1
 244.51953125 716.177734375 l 1
 244.51953125 721.840820312 l 1
461.94140625 544.202148438 m 0
 463.55859375 545.818359375 465.794921875 546.819335938 468.259765625 546.819335938 c 0
 470.725585938 546.819335938 472.958984375 545.818359375 474.576171875 544.202148438 c 2
 511.4375 507.340058762 l 1
 511.4375 713.12890625 l 2
 511.4375 718.8828125 516.099609375 723.555664062 521.844726562 723.555664062 c 0
 527.606445312 723.555664062 532.276367188 718.887695312 532.276367188 713.138671875 c 2
 532.276367188 507.359303392 l 1
 569.13671875 544.202148438 l 2
 570.75390625 545.818359375 572.990234375 546.819335938 575.455078125 546.819335938 c 0
 577.920898438 546.819335938 580.154296875 545.818359375 581.771484375 544.202148438 c 0
 583.388671875 542.5859375 584.389648438 540.3515625 584.389648438 537.88671875 c 0
 584.389648438 535.422851562 583.388671875 533.190429688 581.771484375 531.57421875 c 2
 521.844726562 471.677734375 l 1
 461.94140625 531.57421875 l 2
 460.32421875 533.190429688 459.323242188 535.42578125 459.323242188 537.889648438 c 0
 459.323242188 540.353515625 460.32421875 542.5859375 461.94140625 544.202148438 c 0
250.000976562 487.46484375 m 0
 146.296875 487.46484375 62.345703125 403.555664062 62.345703125 299.90234375 c 0
 62.345703125 196.249023438 146.296875 112.33984375 250.000976562 112.33984375 c 0
 353.705078125 112.33984375 437.65625 196.249023438 437.65625 299.90234375 c 0xff40
 437.65625 403.555664062 353.087890625 487.46484375 250.000976562 487.46484375 c 0
EndSplineSet
Validated: 524291
EndChar

StartChar: y
Encoding: 121 121 50
Width: 790
Flags: W
HStem: 100 12.3564<289.368 381.436> 270.264 20.5734<667.953 707.158> 464.374 16.6367<598.703 631.355> 487.998 12.3584<288.973 381.616> 579.514 57.9883G<50 75.2158 610.986 633.962>
VStem: 135.31 12.3545<254.184 346.781> 523.237 12.3545<254.088 347.048> 626.426 21.4198<303.888 418.904> 689.246 16.9639<412.667 446.561>
LayerCount: 2
Fore
SplineSet
686.573242188 502.627929688 m 1
 706.469726562 423.151367188 l 2
 706.865234375 421.568359375 706.817382812 419.837890625 706.209960938 418.165039062 c 0
 705.165039062 415.287109375 702.75 413.237304688 699.951171875 412.499023438 c 0
 698.323242188 412.069335938 696.55859375 412.0703125 694.865234375 412.62109375 c 0
 691.954101562 413.569335938 689.92578125 415.881835938 689.24609375 418.604492188 c 2
 677.268526363 466.440241936 l 1
 658.148967695 428.787281897 647.846170393 385.519488933 647.846170393 351.332641219 c 0
 647.846170393 336.157291457 649.876256503 322.771271357 654.06640625 312.459960938 c 0
 657.83203125 303.192382812 662.67578125 297.4296875 667.716796875 294.181640625 c 0
 672.7578125 290.934570312 678.142578125 289.819335938 684.955078125 290.837890625 c 0
 698.579101562 292.874023438 717.755859375 305.205078125 736.499023438 329.466796875 c 0
 739.165039062 332.921875 743.852539062 334.524414062 748.180664062 333.115234375 c 0
 749.227539062 332.774414062 750.176757812 332.282226562 751.01171875 331.670898438 c 0
 754.469726562 329.150390625 755.98046875 324.599609375 754.426757812 320.3203125 c 0
 754.05078125 319.28515625 753.5234375 318.341796875 752.877929688 317.506835938 c 0
 732.11328125 290.630859375 709.83203125 274.1484375 687.548828125 270.817382812 c 0
 685.08429036 270.449073856 682.618462447 270.26444374 680.172874912 270.26444374 c 0
 671.562530462 270.26444374 663.203081726 272.553082078 656.034179688 277.171875 c 0
 646.830078125 283.102539062 639.732421875 292.506835938 634.834960938 304.559570312 c 0
 629.114196705 318.637349667 626.426339967 335.323054779 626.426339967 353.42855568 c 0
 626.426339967 392.239615609 638.777166874 437.574703326 660.080081303 477.73077513 c 1
 609.098632812 464.251953125 l 2
 607.470703125 463.822265625 605.705078125 463.823242188 604.012695312 464.374023438 c 0
 601.1015625 465.322265625 599.073242188 467.634765625 598.393554688 470.357421875 c 0
 597.998046875 471.94140625 598.045898438 473.670898438 598.653320312 475.344726562 c 0
 599.69921875 478.22265625 602.114257812 480.271484375 604.912109375 481.010742188 c 2
 686.573242188 502.627929688 l 1
335.450195312 487.998046875 m 0
 231.672851562 487.998046875 147.6640625 403.973632812 147.6640625 300.177734375 c 0
 147.6640625 196.3828125 231.672851562 112.356445312 335.450195312 112.356445312 c 0
 439.2265625 112.356445312 523.237304688 196.3828125 523.237304688 300.177734375 c 0
 523.237304688 403.973632812 438.609375 487.998046875 335.450195312 487.998046875 c 0
623.458984375 657.501953125 m 1
 633.961914062 650.953125 l 1
 492.563476562 424.228515625 l 1
 519.500976562 390.133789062 535.591796875 347.043945312 535.591796875 300.177734375 c 0
 535.591796875 189.5859375 445.404296875 100 335.450195312 100 c 0
 224.877929688 100 135.309570312 190.204101562 135.309570312 300.177734375 c 0
 135.309570312 342.579101562 148.634765625 382.032226562 171.333984375 414.518554688 c 1
 50 571.958984375 l 1
 59.802734375 579.513671875 l 1
 179.025390625 424.810546875 l 1
 215.692382812 470.7578125 272.12109375 500.356445312 335.450195312 500.356445312 c 0
 394.494140625 500.356445312 447.541992188 474.8046875 484.168945312 434.158203125 c 1
 623.458984375 657.501953125 l 1
EndSplineSet
Validated: 524289
EndChar

StartChar: z
Encoding: 122 122 51
Width: 664
Flags: W
HStem: 99.9746 12.3477<210.131 302.134> 487.678 12.3477<210.376 302.127> 500.725 21G<563.759 568.809> 537.277 36.2402<499.857 569.653> 591.86 20G<50 62.6744 564.054 569.124> 653.569 35.5635<440.772 517.569>
VStem: 50 12.3428<368.514 727.658> 56.1797 12.3457<255.008 315.507 315.75 727.658> 443.835 12.3457<253.945 346.055>
LayerCount: 2
Fore
SplineSet
628.583007812 555.399414062 m 1xfc80
 574.45703125 503.518554688 l 2
 572.412881299 501.559334412 570.02902036 500.725136704 567.588878729 500.725136704 c 0
 559.928187774 500.725136704 551.712787771 508.947086264 551.712787771 516.392068272 c 0
 551.712787771 518.873466323 552.625416808 521.268552916 554.775390625 523.244140625 c 2
 569.653118679 536.916452978 l 1
 437.52734375 537.27734375 l 1
 437.52734375 568.513671875 l 1
 517.569335938 653.569335938 l 1
 440.772460938 653.569335938 l 1
 440.772460938 689.1328125 l 1
 578.681640625 689.1328125 l 1
 578.681640625 658.4375 l 1
 499.857421875 573.517578125 l 1
 570.654542745 573.832735888 l 1
 555.868164062 588.094726562 l 2
 553.180117017 590.687599139 552.059761407 593.610081904 552.059761407 596.495903174 c 0
 552.059761407 604.312524625 560.279446772 611.860172584 567.829209124 611.860172584 c 0
 570.41926341 611.860172584 572.930472349 610.971866153 575.00390625 608.901367188 c 2
 628.583007812 555.399414062 l 1xfc80
256.180664062 99.974609375 m 0
 145.686523438 99.974609375 56.1796875 190.109375 56.1796875 300 c 0xfd80
 56.1796875 305.419979515 56.397423484 310.79190056 56.824674438 316.107319034 c 2
 50 727.658203125 l 1
 62.3427734375 727.86328125 l 1xfe80
 68.3009336582 368.513924989 l 1
 96.3245807909 444.997558277 169.846182715 500.025390625 256.180664062 500.025390625 c 0
 366.674804688 500.025390625 456.180664062 410.5078125 456.180664062 300 c 0
 456.180664062 189.4921875 366.057617188 99.974609375 256.180664062 99.974609375 c 0
69.1757492853 315.751927857 m 1
 69.17578125 315.75 l 1
 69.1755891418 315.749996823 l 1
 68.7449863063 310.55740066 68.525390625 305.304538572 68.525390625 300 c 0
 68.525390625 196.283203125 152.4765625 112.322265625 256.180664062 112.322265625 c 0
 359.884765625 112.322265625 443.834960938 196.283203125 443.834960938 300 c 0
 443.834960938 403.716796875 359.267578125 487.677734375 256.180664062 487.677734375 c 0
 157.781109253 487.677734375 77.1654098329 412.086457812 69.1757492853 315.751927857 c 1
EndSplineSet
Validated: 8912897
EndChar
